<svg width="244" height="43" viewBox="0 0 244 43" fill="none" xmlns="http://www.w3.org/2000/svg">
<g clip-path="url(#clip0_2321_2217)">
<path d="M15.2195 10.5487C15.0326 9.47653 14.7679 8.56653 14.4201 7.8082C14.0723 7.0551 13.6519 6.43275 13.1639 5.94637C12.6708 5.45999 12.1258 5.08344 11.5288 4.81149C10.9319 4.53953 10.283 4.35126 9.58746 4.24143C8.88669 4.13683 8.15998 4.08453 7.39693 4.08453H0V24.8524H7.39693C8.21708 24.8524 8.98532 24.8001 9.70166 24.6955C10.418 24.5856 11.0772 24.3921 11.6794 24.1045C12.2815 23.8168 12.8213 23.4246 13.2937 22.9278C13.7661 22.4257 14.1658 21.7876 14.4928 21.0032C14.8198 20.2239 15.069 19.2825 15.2455 18.179C15.4168 17.0808 15.505 15.7838 15.505 14.3037C15.505 12.8236 15.4116 11.6155 15.2195 10.5487ZM11.6794 17.337C11.5496 18.1633 11.3679 18.8537 11.1343 19.3976C10.8955 19.9415 10.61 20.3599 10.283 20.6528C9.94562 20.9509 9.58227 21.1705 9.18257 21.317C8.78288 21.4634 8.35204 21.5471 7.89006 21.5732C7.42807 21.5941 6.95052 21.6098 6.45739 21.6098H3.46747V7.32705H6.45739C6.97128 7.32705 7.45922 7.34274 7.92639 7.37412C8.39357 7.40027 8.8296 7.48918 9.23448 7.62516C9.63937 7.76636 10.0027 7.98079 10.3246 8.26843C10.6464 8.55607 10.9215 8.95354 11.1551 9.4713C11.3835 9.98383 11.5652 10.6323 11.6897 11.4116C11.8143 12.1908 11.8766 13.1479 11.8766 14.2723C11.8766 15.4857 11.8143 16.5055 11.6794 17.337Z" fill="#1D1D1B"/>
<path d="M28.7106 4.08453H24.1168L17.4258 24.8524H21.2099L22.871 19.2198H29.8941L31.6279 24.8524H35.4535L28.7106 4.08453ZM23.7949 16.0923L26.3384 7.3009H26.3955L28.939 16.0923H23.7949Z" fill="#1D1D1B"/>
<path d="M35.8896 4.08453V7.3009H42.0719V24.8524H45.5134V7.3009H51.7528V4.08453H35.8896Z" fill="#1D1D1B"/>
<path d="M63.4733 4.08453H58.8795L52.1885 24.8524H55.9726L57.6337 19.2198H64.6568L66.3906 24.8524H70.2162L63.4733 4.08453ZM58.5576 16.0923L61.1011 7.3009H61.1582L63.7017 16.0923H58.5576Z" fill="#1D1D1B"/>
<path d="M85.5031 7.32705V4.08453H73.1074V24.8524H76.5749V16.835H84.3923V13.5872H76.5749V7.32705H85.5031Z" fill="#1D1D1B"/>
<path d="M98.0603 4.08453H93.4664L86.7754 24.8524H90.5647L92.2258 19.2198H99.2438L100.977 24.8524H104.808L98.0603 4.08453ZM93.1497 16.0923L95.6932 7.3009H95.7503L98.2938 16.0923H93.1497Z" fill="#1D1D1B"/>
<path d="M122.161 16.9814C122.036 16.5002 121.87 16.0871 121.668 15.7524C121.465 15.4124 121.242 15.13 120.988 14.9156C120.739 14.6959 120.484 14.5234 120.225 14.3926C119.965 14.2619 119.716 14.1625 119.472 14.0997C119.233 14.037 119.026 13.9951 118.849 13.9742V13.9481C119.119 13.8905 119.41 13.7912 119.716 13.6604C120.027 13.5297 120.308 13.3153 120.557 13.0119C120.806 12.7138 121.014 12.3059 121.185 11.7881C121.351 11.2756 121.439 10.6062 121.439 9.77986C121.439 8.80711 121.33 7.9651 121.118 7.25384C120.91 6.53734 120.572 5.94637 120.116 5.47568C119.659 5.00499 119.072 4.65459 118.361 4.42448C117.65 4.19959 116.783 4.08453 115.776 4.08453H107.699V24.8524H116.191C117.235 24.8524 118.143 24.7739 118.917 24.6065C119.69 24.4444 120.334 24.1306 120.837 23.6756C121.346 23.2206 121.72 22.5878 121.974 21.7876C122.223 20.9822 122.348 19.9415 122.348 18.6602C122.348 18.0169 122.285 17.4573 122.161 16.9814ZM111.167 7.26952H115.184C115.626 7.26952 116.02 7.31659 116.373 7.40027C116.726 7.48918 117.022 7.63562 117.261 7.83958C117.505 8.04355 117.686 8.32073 117.811 8.6659C117.936 9.01107 117.998 9.43992 117.998 9.95768C117.998 10.58 117.946 11.0821 117.842 11.4587C117.733 11.8404 117.562 12.1333 117.328 12.3425C117.089 12.5517 116.788 12.6929 116.425 12.7609C116.056 12.8289 115.615 12.8603 115.096 12.8603H111.167V7.26952ZM118.496 20.2344C118.356 20.6162 118.159 20.9143 117.904 21.1287C117.65 21.3431 117.344 21.4843 116.98 21.5575C116.622 21.6308 116.217 21.6674 115.776 21.6674H111.167V15.8151H115.6C116.14 15.8151 116.607 15.8465 116.996 15.9093C117.385 15.972 117.707 16.108 117.961 16.312C118.216 16.5159 118.408 16.8088 118.527 17.1906C118.647 17.5724 118.709 18.0797 118.709 18.7125C118.709 19.3453 118.636 19.8474 118.496 20.2344Z" fill="#1D1D1B"/>
<path d="M137.069 16.4427V16.4113C137.733 16.2283 138.33 15.904 138.865 15.4386C139.083 15.2346 139.301 14.9888 139.519 14.7064C139.737 14.4292 139.929 14.0997 140.095 13.718C140.266 13.3414 140.401 12.9073 140.5 12.4157C140.604 11.9241 140.655 11.3697 140.655 10.7474C140.655 9.81647 140.578 9.00584 140.422 8.32073C140.266 7.63039 140.048 7.03941 139.763 6.54257C139.482 6.04574 139.145 5.64303 138.761 5.32924C138.377 5.01022 137.951 4.76442 137.484 4.57614C137.017 4.3931 136.518 4.26758 135.994 4.19436C135.47 4.12114 134.935 4.08453 134.385 4.08453H126.713V24.8524H130.18V17.2272H133.601L137.458 24.8524H141.419L137.069 16.4427ZM134.354 13.9376H130.18V7.32705H134.266C134.691 7.32705 135.075 7.38458 135.423 7.49441C135.771 7.60947 136.067 7.79251 136.311 8.04355C136.56 8.29458 136.747 8.62929 136.877 9.03722C137.006 9.45038 137.069 9.95245 137.069 10.5487C137.069 12.808 136.165 13.9376 134.354 13.9376Z" fill="#1D1D1B"/>
<path d="M145.338 4.08453V24.8524H148.805V4.08453H145.338Z" fill="#1D1D1B"/>
<path d="M165.909 21.887C165.546 21.9027 165.099 21.9236 164.58 21.9445C164.061 21.9602 163.485 21.9707 162.847 21.9707C162.359 21.9707 161.865 21.9498 161.372 21.9079C160.884 21.8661 160.412 21.7563 159.96 21.5889C159.504 21.4163 159.088 21.1705 158.699 20.8358C158.315 20.5063 157.978 20.0566 157.692 19.4865C157.401 18.9164 157.173 18.2 157.012 17.3475C156.846 16.495 156.763 15.47 156.763 14.2671C156.763 13.0642 156.846 12.149 157.002 11.3436C157.163 10.5382 157.386 9.86877 157.666 9.33009C157.952 8.79141 158.289 8.36779 158.673 8.054C159.057 7.74544 159.473 7.51009 159.924 7.3532C160.371 7.19107 160.838 7.0917 161.326 7.0551C161.808 7.01326 162.296 6.99234 162.789 6.99234C163.329 6.99234 163.848 7.00803 164.342 7.02895C164.84 7.0551 165.281 7.07601 165.665 7.09693C166.117 7.12308 166.542 7.15446 166.937 7.18584V4.68073C166.542 4.50292 166.065 4.35125 165.504 4.21528C165.027 4.10022 164.425 3.99039 163.713 3.89625C163.002 3.79689 162.161 3.74982 161.201 3.74982C160.63 3.74982 160.038 3.80735 159.426 3.93286C158.808 4.05315 158.201 4.26234 157.604 4.56568C157.007 4.86378 156.436 5.27171 155.896 5.77901C155.361 6.2863 154.889 6.93481 154.484 7.72452C154.079 8.509 153.757 9.43992 153.513 10.5225C153.275 11.6051 153.155 12.8655 153.155 14.3037C153.155 15.7419 153.259 17.1017 153.472 18.2156C153.685 19.3348 153.975 20.2971 154.354 21.1078C154.728 21.9184 155.169 22.5878 155.683 23.116C156.192 23.6442 156.742 24.0626 157.334 24.3764C157.931 24.685 158.554 24.9046 159.213 25.0302C159.872 25.1557 160.537 25.2184 161.201 25.2184C162.161 25.2184 163.007 25.1714 163.734 25.0772C164.461 24.9883 165.079 24.8837 165.577 24.7634C166.158 24.6379 166.657 24.4863 167.082 24.3137V21.7981C166.734 21.8243 166.345 21.8556 165.909 21.887Z" fill="#1D1D1B"/>
<path d="M180.07 4.08453H175.476L168.785 24.8524H172.569L174.236 19.2198H181.254L182.987 24.8524H186.818L180.07 4.08453ZM175.159 16.0923L177.703 7.3009H177.76L180.298 16.0923H175.159Z" fill="#1D1D1B"/>
<path d="M187.249 4.08453V7.3009H193.436V24.8524H196.873V7.3009H199.152C199.676 6.15033 200.33 5.07298 201.093 4.08453H187.249Z" fill="#1D1D1B"/>
<path d="M239.65 16.4427V16.4113C240.314 16.2283 240.911 15.904 241.441 15.4386C241.664 15.2346 241.882 14.9888 242.1 14.7064C242.313 14.4292 242.51 14.0997 242.676 13.718C242.842 13.3414 242.977 12.9073 243.081 12.4157C243.18 11.9241 243.232 11.3697 243.232 10.7474C243.232 9.81647 243.154 9.00584 243.003 8.32073C242.848 7.63039 242.629 7.03941 242.344 6.54257C242.058 6.04574 241.726 5.64303 241.342 5.32924C240.953 5.01022 240.527 4.76442 240.06 4.57614C239.593 4.3931 239.1 4.26758 238.575 4.19436C238.046 4.12114 237.511 4.08453 236.961 4.08453H229.289V7.41596C230.234 9.51314 230.758 11.8404 230.758 14.2932C230.758 16.7461 230.234 19.0733 229.289 21.1705V24.8524H232.757V17.2272H236.182L240.039 24.8524H244L239.65 16.4427ZM236.935 13.9376H232.757V7.32705H236.847C237.273 7.32705 237.657 7.38458 238.004 7.49441C238.347 7.60947 238.648 7.79251 238.892 8.04355C239.136 8.29458 239.323 8.62929 239.453 9.03722C239.582 9.45038 239.65 9.95245 239.65 10.5487C239.65 12.808 238.742 13.9376 236.935 13.9376Z" fill="#1D1D1B"/>
<path d="M14.7416 39.9144C14.6793 39.7104 14.6533 39.4855 14.6533 39.2293V38.4605C14.6533 37.9636 14.5391 37.5557 14.3211 37.2262C14.0979 36.8967 13.7346 36.6719 13.2362 36.5463C13.6878 36.3842 14.0356 36.1384 14.2848 35.7932C14.534 35.4533 14.6585 35.0611 14.6585 34.627C14.6585 33.8896 14.4249 33.33 13.9578 32.943C13.4958 32.5612 12.8262 32.3677 11.9593 32.3677H9.25488V40.542H9.9245V36.8497H12.1514C12.7275 36.8497 13.1791 36.9909 13.501 37.2838C13.8228 37.5714 13.9837 37.9689 13.9837 38.4709V39.2188C13.9837 39.4803 14.0097 39.7313 14.0668 39.9771C14.1187 40.2177 14.2173 40.4112 14.3575 40.542H15.0375V40.4112C14.8973 40.2805 14.7987 40.1183 14.7416 39.9144ZM11.8814 36.2744H9.9245V32.943H11.9593C12.6393 32.943 13.1532 33.0894 13.4906 33.377C13.8228 33.6699 13.9941 34.0831 13.9941 34.6217C13.9941 35.129 13.8228 35.5317 13.4854 35.8299C13.148 36.1227 12.6133 36.2744 11.8814 36.2744Z" fill="#1D1D1B"/>
<path d="M21.1161 37.4982V36.9752C21.1161 36.175 20.9136 35.537 20.5139 35.0663C20.1142 34.5904 19.5484 34.355 18.8165 34.355C18.0846 34.355 17.4773 34.6375 16.9842 35.2075C16.491 35.7776 16.2471 36.4993 16.2471 37.3779V37.6865C16.2471 38.5599 16.491 39.2711 16.979 39.8255C17.4617 40.3851 18.095 40.6623 18.8788 40.6623C19.3564 40.6623 19.7716 40.589 20.1142 40.4374C20.4568 40.2909 20.7371 40.1079 20.9448 39.883L20.6645 39.4228C20.4568 39.6267 20.2025 39.7889 19.891 39.9092C19.5848 40.0347 19.2474 40.0922 18.8788 40.0922C18.2663 40.0922 17.7836 39.8673 17.4358 39.4071C17.088 38.9521 16.9167 38.3768 16.9167 37.6865V37.4982H21.1161ZM17.55 35.4847C17.8822 35.1134 18.3026 34.9251 18.8165 34.9251C19.3304 34.9251 19.7457 35.1029 20.026 35.4533C20.3063 35.8037 20.4464 36.2483 20.4464 36.7869V36.9281H16.9894L16.9686 36.8915C17.0257 36.3215 17.2178 35.8508 17.55 35.4847Z" fill="#1D1D1B"/>
<path d="M26.8831 39.9405C26.8572 39.7418 26.8468 39.5326 26.8468 39.3182V36.3319C26.8468 35.6939 26.6444 35.2023 26.2447 34.8623C25.845 34.5224 25.3103 34.355 24.6511 34.355C23.9919 34.355 23.452 34.5276 23.0419 34.8728C22.6319 35.218 22.4346 35.6207 22.4606 36.0757L22.4709 36.1123H23.0886C23.0886 35.7723 23.2288 35.4899 23.5091 35.265C23.7894 35.0402 24.158 34.9251 24.6147 34.9251C25.1131 34.9251 25.5024 35.0506 25.7723 35.2964C26.0474 35.5422 26.1824 35.8822 26.1824 36.3215V37.0746H24.6978C23.9451 37.0746 23.3326 37.2419 22.8602 37.5766C22.3879 37.9166 22.1543 38.3559 22.1543 38.8998C22.1543 39.4437 22.3152 39.8726 22.6422 40.1863C22.9641 40.5054 23.4209 40.6623 24.0126 40.6623C24.5005 40.6623 24.9314 40.5524 25.3103 40.338C25.6841 40.1236 25.9747 39.8516 26.1824 39.5222C26.1824 39.6843 26.1928 39.8412 26.2135 39.9928C26.2343 40.1497 26.2654 40.3328 26.307 40.542H27.0025C26.9454 40.3432 26.9091 40.1445 26.8831 39.9405ZM26.1824 38.7534C26.0474 39.1351 25.7931 39.4542 25.4193 39.7C25.0456 39.9458 24.5992 40.0661 24.0853 40.0661C23.6908 40.0661 23.3845 39.9615 23.1561 39.7523C22.9329 39.5431 22.8187 39.2659 22.8187 38.9207C22.8187 38.5546 22.9952 38.2408 23.3482 37.9793C23.7064 37.7178 24.1528 37.5871 24.6926 37.5871H26.1824V38.7534Z" fill="#1D1D1B"/>
<path d="M28.7314 31.7819V40.542H29.3959V31.7819H28.7314Z" fill="#1D1D1B"/>
<path d="M33.4492 32.3624V32.9377H36.3094V40.5419H36.9738V32.9377H39.7405V32.3624H33.4492Z" fill="#1D1D1B"/>
<path d="M40.9971 31.7819V32.7233H41.6615V31.7819H40.9971ZM40.9971 34.4648V40.542H41.6615V34.4648H40.9971Z" fill="#1D1D1B"/>
<path d="M51.3836 34.9983C51.0306 34.5695 50.5323 34.355 49.8886 34.355C49.4163 34.355 49.0062 34.4753 48.674 34.7107C48.3366 34.9512 48.077 35.286 47.8953 35.7043C47.7604 35.2493 47.5372 34.9094 47.2309 34.6845C46.9195 34.4649 46.5354 34.355 46.0734 34.355C45.6114 34.355 45.2532 34.4492 44.9314 34.6427C44.6096 34.8414 44.35 35.1134 44.158 35.4638L44.0957 34.4649H43.5039V40.542H44.1735V36.2587C44.2877 35.8508 44.4798 35.5318 44.7549 35.2912C45.0352 35.0558 45.4089 34.9356 45.8761 34.9356C46.3433 34.9356 46.7066 35.0977 46.9714 35.4115C47.2361 35.7305 47.3711 36.2535 47.3711 36.9857V40.542H48.0459V36.8968C48.0459 36.834 48.0407 36.7817 48.0407 36.7399V36.6196C48.1134 36.1227 48.2898 35.72 48.5702 35.4062C48.8453 35.0925 49.2398 34.9356 49.7485 34.9356C50.2156 34.9356 50.579 35.0925 50.8437 35.401C51.1085 35.7096 51.2382 36.2378 51.2382 36.9857V40.542H51.9079V37.0014C51.9079 36.0966 51.7314 35.4272 51.3836 34.9983Z" fill="#1D1D1B"/>
<path d="M58.1991 37.4982V36.9752C58.1991 36.175 57.9966 35.537 57.5969 35.0663C57.1972 34.5904 56.6314 34.355 55.8995 34.355C55.1676 34.355 54.5603 34.6375 54.0672 35.2075C53.5792 35.7776 53.3301 36.4993 53.3301 37.3779V37.6865C53.3301 38.5599 53.574 39.2711 54.062 39.8255C54.5499 40.3851 55.1832 40.6623 55.9618 40.6623C56.4446 40.6623 56.8547 40.589 57.1972 40.4374C57.5398 40.2909 57.8201 40.1079 58.033 39.883L57.7475 39.4228C57.545 39.6267 57.2855 39.7889 56.9792 39.9092C56.6678 40.0347 56.3304 40.0922 55.9618 40.0922C55.3493 40.0922 54.8666 39.8673 54.5188 39.4071C54.171 38.9521 53.9997 38.3768 53.9997 37.6865V37.4982H58.1991ZM54.633 35.4847C54.9652 35.1134 55.3908 34.9251 55.8995 34.9251C56.4082 34.9251 56.8287 35.1029 57.109 35.4533C57.3893 35.8037 57.5295 36.2483 57.5295 36.7869V36.9281H54.0724L54.0568 36.8915C54.1139 36.3215 54.306 35.8508 54.633 35.4847Z" fill="#1D1D1B"/>
<path d="M67.4648 33.3666C66.8159 32.6971 65.9958 32.3624 65.0043 32.3624H62.5283V40.5419H65.0043C65.9958 40.5419 66.8159 40.2125 67.4648 39.5483C68.1137 38.8841 68.4355 38.0264 68.4355 36.9804V35.9292C68.4355 34.8885 68.1137 34.0308 67.4648 33.3666ZM67.7659 36.9804C67.7659 37.8486 67.5063 38.5651 66.9872 39.1299C66.4682 39.6947 65.8037 39.9771 65.0043 39.9771H63.1979V32.9377H65.0043C65.8037 32.9377 66.463 33.2201 66.9872 33.785C67.5063 34.3498 67.7659 35.061 67.7659 35.9135V36.9804Z" fill="#1D1D1B"/>
<path d="M74.473 39.9405C74.4522 39.7418 74.4366 39.5326 74.4366 39.3182V36.3319C74.4366 35.6939 74.2394 35.2023 73.8345 34.8623C73.4348 34.5224 72.9054 34.355 72.2409 34.355C71.5765 34.355 71.0419 34.5276 70.6318 34.8728C70.2217 35.218 70.0296 35.6207 70.0504 36.0757L70.0608 36.1123H70.6785C70.6785 35.7723 70.8186 35.4899 71.0989 35.265C71.3793 35.0402 71.753 34.9251 72.2098 34.9251C72.7081 34.9251 73.0922 35.0506 73.3673 35.2964C73.6373 35.5422 73.7774 35.8822 73.7774 36.3215V37.0746H72.2928C71.535 37.0746 70.9225 37.2419 70.4501 37.5766C69.9777 37.9166 69.7441 38.3559 69.7441 38.8998C69.7441 39.4437 69.9051 39.8726 70.2321 40.1863C70.5539 40.5054 71.0159 40.6623 71.6076 40.6623C72.0904 40.6623 72.5212 40.5524 72.9002 40.338C73.2739 40.1236 73.5646 39.8516 73.7774 39.5222C73.7774 39.6843 73.7826 39.8412 73.8034 39.9928C73.8241 40.1497 73.8553 40.3328 73.8968 40.542H74.5924C74.5405 40.3432 74.4989 40.1445 74.473 39.9405ZM73.7774 38.7534C73.6425 39.1351 73.3881 39.4542 73.0092 39.7C72.6354 39.9458 72.189 40.0661 71.6803 40.0661C71.2858 40.0661 70.9744 39.9615 70.7512 39.7523C70.5228 39.5431 70.4138 39.2659 70.4138 38.9207C70.4138 38.5546 70.5902 38.2408 70.9432 37.9793C71.2962 37.7178 71.7426 37.5871 72.2876 37.5871H73.7774V38.7534Z" fill="#1D1D1B"/>
<path d="M78.5784 40.0085C78.4694 40.0346 78.3811 40.0503 78.3033 40.0556C78.2306 40.066 78.1475 40.0713 78.0697 40.0713C77.8309 40.0713 77.6388 39.9876 77.4987 39.8202C77.3533 39.6529 77.2807 39.3757 77.2807 38.9782V35.014H78.6095V34.4648H77.2807V32.9116H76.6059V34.4648H75.5625V35.014H76.6059V38.9782C76.6059 39.5587 76.7252 39.9876 76.964 40.2595C77.1976 40.5263 77.5298 40.6622 77.9503 40.6622C78.08 40.6622 78.2098 40.6465 78.3448 40.6204C78.4745 40.5942 78.5888 40.5576 78.677 40.5106L78.5784 40.0085Z" fill="#1D1D1B"/>
<path d="M84.3356 39.9405C84.3096 39.7418 84.2993 39.5326 84.2993 39.3182V36.3319C84.2993 35.6939 84.0968 35.2023 83.6971 34.8623C83.2922 34.5224 82.7628 34.355 82.1035 34.355C81.4443 34.355 80.9045 34.5276 80.4944 34.8728C80.0791 35.218 79.8871 35.6207 79.9078 36.0757L79.9182 36.1123H80.5411C80.5411 35.7723 80.6813 35.4899 80.9616 35.265C81.2419 35.0402 81.6104 34.9251 82.0672 34.9251C82.5655 34.9251 82.9496 35.0506 83.2248 35.2964C83.4999 35.5422 83.6348 35.8822 83.6348 36.3215V37.0746H82.1503C81.3976 37.0746 80.7851 37.2419 80.3127 37.5766C79.8403 37.9166 79.6016 38.3559 79.6016 38.8998C79.6016 39.4437 79.7677 39.8726 80.0895 40.1863C80.4165 40.5054 80.8733 40.6623 81.4651 40.6623C81.953 40.6623 82.3838 40.5524 82.7576 40.338C83.1365 40.1236 83.4272 39.8516 83.6348 39.5222C83.6348 39.6843 83.6452 39.8412 83.666 39.9928C83.6867 40.1497 83.7179 40.3328 83.7594 40.542H84.455C84.3979 40.3432 84.3564 40.1445 84.3356 39.9405ZM83.6348 38.7534C83.4999 39.1351 83.2455 39.4542 82.8718 39.7C82.4928 39.9458 82.0516 40.0661 81.5377 40.0661C81.1432 40.0661 80.8318 39.9615 80.6086 39.7523C80.3854 39.5431 80.2712 39.2659 80.2712 38.9207C80.2712 38.5546 80.4477 38.2408 80.8006 37.9793C81.1536 37.7178 81.6052 37.5871 82.1451 37.5871H83.6348V38.7534Z" fill="#1D1D1B"/>
<path d="M91.8413 32.3624H91.2132L88.2285 40.5419H88.9241L89.739 38.2617H93.3051L94.1149 40.5419H94.8053L91.8413 32.3624ZM89.9519 37.6603L91.5143 33.3247H91.5455L93.0871 37.6603H89.9519Z" fill="#1D1D1B"/>
<path d="M99.9907 34.4649L99.8973 35.4219C99.6896 35.082 99.4301 34.8153 99.1134 34.6322C98.7968 34.4439 98.4283 34.355 97.9974 34.355C97.2707 34.355 96.7049 34.6427 96.2948 35.2284C95.8899 35.8089 95.6875 36.583 95.6875 37.5557V37.6708C95.6875 38.5808 95.8899 39.3025 96.2948 39.8464C96.7049 40.3903 97.2655 40.6623 97.987 40.6623C98.4023 40.6623 98.7657 40.5786 99.0771 40.4165C99.3937 40.2543 99.6533 40.019 99.8557 39.7157V40.5786C99.8557 41.1748 99.7104 41.6298 99.4145 41.9384C99.1238 42.2417 98.6774 42.3986 98.0857 42.3986C97.769 42.3986 97.4783 42.3672 97.2032 42.3044C96.9333 42.2417 96.6738 42.1528 96.435 42.0325L96.3052 42.6025C96.5492 42.7228 96.8347 42.8222 97.1669 42.8902C97.4939 42.9634 97.8054 43 98.096 43C98.8695 43 99.4716 42.7908 99.8973 42.3724C100.318 41.9488 100.531 41.3526 100.531 40.5786V34.4649H99.9907ZM99.8557 38.9939C99.6948 39.3286 99.4716 39.5954 99.1861 39.7889C98.8954 39.9824 98.5425 40.0765 98.1168 40.0765C97.5302 40.0765 97.089 39.8621 96.7931 39.428C96.5025 38.9939 96.3571 38.4082 96.3571 37.6708V37.5557C96.3571 36.7817 96.5025 36.1541 96.7983 35.6677C97.0994 35.1814 97.5406 34.9356 98.1272 34.9356C98.5684 34.9356 98.9266 35.0454 99.2069 35.2598C99.4872 35.4742 99.7052 35.7514 99.8557 36.0966V38.9939Z" fill="#1D1D1B"/>
<path d="M106.371 34.4649L106.277 35.4219C106.07 35.082 105.81 34.8153 105.493 34.6322C105.177 34.4439 104.808 34.355 104.377 34.355C103.651 34.355 103.085 34.6427 102.675 35.2284C102.27 35.8089 102.067 36.583 102.067 37.5557V37.6708C102.067 38.5808 102.27 39.3025 102.675 39.8464C103.085 40.3903 103.645 40.6623 104.367 40.6623C104.782 40.6623 105.146 40.5786 105.457 40.4165C105.774 40.2543 106.033 40.019 106.236 39.7157V40.5786C106.236 41.1748 106.09 41.6298 105.794 41.9384C105.504 42.2417 105.057 42.3986 104.466 42.3986C104.149 42.3986 103.858 42.3672 103.583 42.3044C103.313 42.2417 103.054 42.1528 102.815 42.0325L102.685 42.6025C102.929 42.7228 103.215 42.8222 103.547 42.8902C103.874 42.9634 104.185 43 104.476 43C105.249 43 105.851 42.7908 106.277 42.3724C106.698 41.9488 106.91 41.3526 106.91 40.5786V34.4649H106.371ZM106.236 38.9939C106.075 39.3286 105.851 39.5954 105.566 39.7889C105.275 39.9824 104.922 40.0765 104.497 40.0765C103.91 40.0765 103.469 39.8621 103.173 39.428C102.882 38.9939 102.737 38.4082 102.737 37.6708V37.5557C102.737 36.7817 102.882 36.1541 103.178 35.6677C103.479 35.1814 103.921 34.9356 104.507 34.9356C104.948 34.9356 105.306 35.0454 105.587 35.2598C105.867 35.4742 106.085 35.7514 106.236 36.0966V38.9939Z" fill="#1D1D1B"/>
<path d="M111.338 34.3707C111.265 34.3603 111.188 34.355 111.104 34.355C110.7 34.355 110.352 34.4596 110.056 34.6688C109.765 34.878 109.526 35.1709 109.355 35.5422V35.4742L109.272 34.4649H108.686V40.542H109.355V36.3476C109.469 35.9292 109.661 35.605 109.931 35.3696C110.201 35.1291 110.544 35.0088 110.964 35.0088L111.442 35.0454L111.525 34.4126C111.473 34.4021 111.411 34.3864 111.338 34.3707Z" fill="#1D1D1B"/>
<path d="M117.027 37.4982V36.9752C117.027 36.175 116.825 35.537 116.43 35.0663C116.025 34.5904 115.46 34.355 114.728 34.355C113.996 34.355 113.388 34.6375 112.9 35.2075C112.407 35.7776 112.158 36.4993 112.158 37.3779V37.6865C112.158 38.5599 112.402 39.2711 112.89 39.8255C113.378 40.3851 114.011 40.6623 114.79 40.6623C115.273 40.6623 115.683 40.589 116.025 40.4374C116.368 40.2909 116.648 40.1079 116.861 39.883L116.576 39.4228C116.373 39.6267 116.114 39.7889 115.807 39.9092C115.496 40.0347 115.158 40.0922 114.79 40.0922C114.177 40.0922 113.695 39.8673 113.352 39.4071C113.004 38.9521 112.828 38.3768 112.828 37.6865V37.4982H117.027ZM113.466 35.4847C113.793 35.1134 114.219 34.9251 114.728 34.9251C115.236 34.9251 115.657 35.1029 115.937 35.4533C116.217 35.8037 116.358 36.2483 116.358 36.7869V36.9281H112.9L112.885 36.8915C112.942 36.3215 113.134 35.8508 113.466 35.4847Z" fill="#1D1D1B"/>
<path d="M122.462 34.4649L122.369 35.4219C122.166 35.082 121.907 34.8153 121.59 34.6322C121.274 34.4439 120.9 34.355 120.474 34.355C119.748 34.355 119.177 34.6427 118.772 35.2284C118.362 35.8089 118.159 36.583 118.159 37.5557V37.6708C118.159 38.5808 118.362 39.3025 118.772 39.8464C119.177 40.3903 119.742 40.6623 120.464 40.6623C120.874 40.6623 121.237 40.5786 121.554 40.4165C121.865 40.2543 122.125 40.019 122.333 39.7157V40.5786C122.333 41.1748 122.182 41.6298 121.891 41.9384C121.596 42.2417 121.154 42.3986 120.557 42.3986C120.246 42.3986 119.955 42.3672 119.68 42.3044C119.405 42.2417 119.151 42.1528 118.907 42.0325L118.777 42.6025C119.026 42.7228 119.312 42.8222 119.639 42.8902C119.971 42.9634 120.277 43 120.568 43C121.346 43 121.948 42.7908 122.369 42.3724C122.795 41.9488 123.007 41.3526 123.007 40.5786V34.4649H122.462ZM122.333 38.9939C122.172 39.3286 121.948 39.5954 121.658 39.7889C121.372 39.9824 121.014 40.0765 120.594 40.0765C120.002 40.0765 119.561 39.8621 119.27 39.428C118.974 38.9939 118.829 38.4082 118.829 37.6708V37.5557C118.829 36.7817 118.979 36.1541 119.275 35.6677C119.571 35.1814 120.012 34.9356 120.604 34.9356C121.04 34.9356 121.398 35.0454 121.684 35.2598C121.964 35.4742 122.177 35.7514 122.333 36.0966V38.9939Z" fill="#1D1D1B"/>
<path d="M129.174 39.9405C129.153 39.7418 129.138 39.5326 129.138 39.3182V36.3319C129.138 35.6939 128.941 35.2023 128.536 34.8623C128.136 34.5224 127.607 34.355 126.942 34.355C126.278 34.355 125.743 34.5276 125.333 34.8728C124.923 35.218 124.731 35.6207 124.752 36.0757L124.762 36.1123H125.38C125.38 35.7723 125.52 35.4899 125.8 35.265C126.086 35.0402 126.454 34.9251 126.911 34.9251C127.409 34.9251 127.793 35.0506 128.063 35.2964C128.338 35.5422 128.479 35.8822 128.479 36.3215V37.0746H126.994C126.236 37.0746 125.624 37.2419 125.151 37.5766C124.679 37.9166 124.445 38.3559 124.445 38.8998C124.445 39.4437 124.606 39.8726 124.933 40.1863C125.26 40.5054 125.717 40.6623 126.309 40.6623C126.792 40.6623 127.228 40.5524 127.601 40.338C127.975 40.1236 128.266 39.8516 128.479 39.5222C128.479 39.6843 128.489 39.8412 128.505 39.9928C128.525 40.1497 128.556 40.3328 128.598 40.542H129.294C129.242 40.3432 129.2 40.1445 129.174 39.9405ZM128.479 38.7534C128.344 39.1351 128.089 39.4542 127.71 39.7C127.337 39.9458 126.895 40.0661 126.381 40.0661C125.987 40.0661 125.676 39.9615 125.452 39.7523C125.224 39.5431 125.115 39.2659 125.115 38.9207C125.115 38.5546 125.291 38.2408 125.644 37.9793C125.997 37.7178 126.444 37.5871 126.989 37.5871H128.479V38.7534Z" fill="#1D1D1B"/>
<path d="M133.274 40.0085C133.171 40.0346 133.082 40.0503 133.004 40.0556C132.932 40.066 132.849 40.0713 132.771 40.0713C132.532 40.0713 132.34 39.9876 132.2 39.8202C132.055 39.6529 131.982 39.3757 131.982 38.9782V35.014H133.311V34.4648H131.982V32.9116H131.307V34.4648H130.264V35.014H131.307V38.9782C131.307 39.5587 131.426 39.9876 131.66 40.2595C131.899 40.5263 132.231 40.6622 132.651 40.6622C132.781 40.6622 132.911 40.6465 133.046 40.6204C133.176 40.5942 133.29 40.5576 133.378 40.5106L133.274 40.0085Z" fill="#1D1D1B"/>
<path d="M134.723 31.7819V32.7233H135.387V31.7819H134.723ZM134.723 34.4648V40.542H135.387V34.4648H134.723Z" fill="#1D1D1B"/>
<path d="M141.486 35.2127C140.998 34.6375 140.349 34.355 139.545 34.355C138.74 34.355 138.096 34.6375 137.609 35.2127C137.126 35.788 136.882 36.5202 136.882 37.4145V37.6028C136.882 38.4971 137.126 39.2345 137.609 39.8046C138.096 40.3746 138.745 40.6623 139.555 40.6623C140.365 40.6623 141.003 40.3746 141.486 39.8046C141.974 39.2345 142.218 38.4971 142.218 37.6028V37.4145C142.218 36.5202 141.974 35.788 141.486 35.2127ZM141.554 37.6028C141.554 38.3036 141.377 38.8946 141.019 39.3757C140.666 39.8569 140.178 40.0922 139.555 40.0922C138.932 40.0922 138.434 39.8569 138.081 39.3757C137.728 38.8946 137.551 38.3036 137.551 37.6028V37.4145C137.551 36.7242 137.728 36.1332 138.081 35.652C138.434 35.1657 138.922 34.9251 139.545 34.9251C140.168 34.9251 140.661 35.1657 141.019 35.652C141.372 36.1332 141.554 36.7242 141.554 37.4145V37.6028Z" fill="#1D1D1B"/>
<path d="M147.731 34.9565C147.389 34.5538 146.89 34.355 146.236 34.355C145.79 34.355 145.401 34.4544 145.074 34.6584C144.747 34.8623 144.482 35.15 144.285 35.5213L144.222 34.4649H143.636V40.542H144.305V36.243C144.435 35.8456 144.643 35.5265 144.933 35.2912C145.229 35.0558 145.613 34.9356 146.086 34.9356C146.558 34.9356 146.932 35.082 147.186 35.3696C147.446 35.6573 147.576 36.1489 147.576 36.8497V40.542H148.245V36.8392C148.245 35.9868 148.074 35.3592 147.731 34.9565Z" fill="#1D1D1B"/>
<path d="M157.209 39.9405C157.183 39.7418 157.173 39.5326 157.173 39.3182V36.3319C157.173 35.6939 156.971 35.2023 156.571 34.8623C156.171 34.5224 155.636 34.355 154.977 34.355C154.318 34.355 153.778 34.5276 153.368 34.8728C152.958 35.218 152.761 35.6207 152.787 36.0757L152.797 36.1123H153.415C153.415 35.7723 153.555 35.4899 153.835 35.265C154.116 35.0402 154.484 34.9251 154.941 34.9251C155.439 34.9251 155.829 35.0506 156.098 35.2964C156.374 35.5422 156.509 35.8822 156.509 36.3215V37.0746H155.029C154.271 37.0746 153.659 37.2419 153.186 37.5766C152.714 37.9166 152.48 38.3559 152.48 38.8998C152.48 39.4437 152.641 39.8726 152.968 40.1863C153.29 40.5054 153.752 40.6623 154.339 40.6623C154.827 40.6623 155.258 40.5524 155.636 40.338C156.01 40.1236 156.301 39.8516 156.509 39.5222C156.509 39.6843 156.519 39.8412 156.54 39.9928C156.56 40.1497 156.592 40.3328 156.633 40.542H157.329C157.272 40.3432 157.235 40.1445 157.209 39.9405ZM156.509 38.7534C156.374 39.1351 156.119 39.4542 155.746 39.7C155.372 39.9458 154.925 40.0661 154.411 40.0661C154.017 40.0661 153.711 39.9615 153.487 39.7523C153.259 39.5431 153.15 39.2659 153.15 38.9207C153.15 38.5546 153.327 38.2408 153.68 37.9793C154.033 37.7178 154.479 37.5871 155.019 37.5871H156.509V38.7534Z" fill="#1D1D1B"/>
<path d="M163.075 34.9565C162.733 34.5538 162.234 34.355 161.58 34.355C161.129 34.355 160.739 34.4544 160.412 34.6584C160.085 34.8623 159.826 35.15 159.629 35.5213L159.566 34.4649H158.975V40.542H159.644V36.243C159.774 35.8456 159.987 35.5265 160.277 35.2912C160.568 35.0558 160.952 34.9356 161.43 34.9356C161.907 34.9356 162.271 35.082 162.53 35.3696C162.79 35.6573 162.92 36.1489 162.92 36.8497V40.542H163.589V36.8392C163.589 35.9868 163.418 35.3592 163.075 34.9565Z" fill="#1D1D1B"/>
<path d="M169.262 31.7819V35.3644C169.06 35.0401 168.8 34.7943 168.489 34.6165C168.182 34.4387 167.819 34.355 167.404 34.355C166.677 34.355 166.111 34.6427 165.701 35.2284C165.296 35.8089 165.094 36.5829 165.094 37.5557V37.6708C165.094 38.5808 165.296 39.3077 165.701 39.8516C166.111 40.3903 166.672 40.6622 167.393 40.6622C167.824 40.6622 168.193 40.5733 168.509 40.406C168.826 40.2334 169.086 39.9824 169.293 39.6633L169.387 40.542H169.932V31.7819H169.262ZM169.262 38.9887C169.101 39.3286 168.878 39.5953 168.592 39.7889C168.307 39.9824 167.949 40.0765 167.518 40.0765C166.931 40.0765 166.49 39.8621 166.199 39.428C165.909 38.9939 165.763 38.4082 165.763 37.6708V37.5557C165.763 36.7817 165.909 36.1489 166.205 35.6625C166.5 35.1813 166.942 34.9355 167.528 34.9355C167.975 34.9355 168.338 35.0454 168.618 35.265C168.893 35.4794 169.111 35.7619 169.262 36.107V38.9887Z" fill="#1D1D1B"/>
<path d="M179.468 33.0214C179.001 32.5821 178.342 32.3624 177.49 32.3624H174.692V40.5419H175.362V37.1425H177.49C178.342 37.1425 179.001 36.9281 179.468 36.494C179.935 36.0599 180.169 35.4794 180.169 34.7525C180.169 34.0255 179.935 33.4607 179.468 33.0214ZM178.996 36.0599C178.658 36.3999 178.16 36.5725 177.49 36.5725H175.362V32.9377H177.49C178.16 32.9377 178.658 33.1103 178.996 33.4555C179.328 33.8059 179.499 34.24 179.499 34.7629C179.499 35.2859 179.328 35.7148 178.996 36.0599Z" fill="#1D1D1B"/>
<path d="M184.254 34.3707C184.181 34.3603 184.104 34.355 184.02 34.355C183.616 34.355 183.263 34.4596 182.972 34.6688C182.676 34.878 182.442 35.1709 182.271 35.5422V35.4742L182.183 34.4649H181.602V40.542H182.271V36.3476C182.385 35.9292 182.577 35.605 182.847 35.3696C183.117 35.1291 183.46 35.0088 183.88 35.0088L184.353 35.0454L184.436 34.4126C184.389 34.4021 184.327 34.3864 184.254 34.3707Z" fill="#1D1D1B"/>
<path d="M189.943 37.4982V36.9752C189.943 36.175 189.741 35.537 189.341 35.0663C188.941 34.5904 188.376 34.355 187.644 34.355C186.912 34.355 186.304 34.6375 185.811 35.2075C185.318 35.7776 185.074 36.4993 185.074 37.3779V37.6865C185.074 38.5599 185.318 39.2711 185.806 39.8255C186.294 40.3851 186.927 40.6623 187.706 40.6623C188.184 40.6623 188.599 40.589 188.941 40.4374C189.284 40.2909 189.564 40.1079 189.777 39.883L189.492 39.4228C189.284 39.6267 189.03 39.7889 188.723 39.9092C188.412 40.0347 188.075 40.0922 187.706 40.0922C187.093 40.0922 186.611 39.8673 186.263 39.4071C185.915 38.9521 185.744 38.3768 185.744 37.6865V37.4982H189.943ZM186.377 35.4847C186.709 35.1134 187.13 34.9251 187.644 34.9251C188.158 34.9251 188.573 35.1029 188.853 35.4533C189.133 35.8037 189.274 36.2483 189.274 36.7869V36.9281H185.817L185.801 36.8915C185.853 36.3215 186.05 35.8508 186.377 35.4847Z" fill="#1D1D1B"/>
<path d="M195.045 37.8172C194.687 37.54 194.152 37.3204 193.446 37.1635C192.818 37.0223 192.398 36.8654 192.185 36.6823C191.977 36.4993 191.874 36.2692 191.874 35.992C191.874 35.7148 191.993 35.4585 192.237 35.2441C192.486 35.0349 192.849 34.9251 193.332 34.9251C193.815 34.9251 194.178 35.0506 194.464 35.2964C194.744 35.5422 194.889 35.8351 194.889 36.1698H195.507L195.517 36.1332C195.538 35.6311 195.346 35.2075 194.941 34.8676C194.542 34.5224 194.007 34.355 193.332 34.355C192.694 34.355 192.18 34.5119 191.79 34.8362C191.401 35.1604 191.209 35.5527 191.209 36.0181C191.209 36.4836 191.38 36.8497 191.728 37.1112C192.076 37.3674 192.605 37.5766 193.322 37.7231C193.929 37.8591 194.344 38.0316 194.578 38.2461C194.812 38.4553 194.926 38.7011 194.926 38.9887C194.926 39.292 194.786 39.5535 194.51 39.768C194.23 39.9876 193.851 40.0922 193.363 40.0922C192.922 40.0922 192.533 39.9981 192.201 39.7993C191.874 39.6006 191.697 39.2816 191.671 38.8423H191.059L191.048 38.8736C191.022 39.36 191.219 39.7836 191.64 40.134C192.06 40.4844 192.631 40.6623 193.363 40.6623C194.033 40.6623 194.573 40.5054 194.978 40.1863C195.388 39.8726 195.59 39.4594 195.59 38.9521C195.59 38.4762 195.408 38.0996 195.045 37.8172Z" fill="#1D1D1B"/>
<path d="M201.68 37.4982V36.9752C201.68 36.175 201.482 35.537 201.083 35.0663C200.683 34.5904 200.117 34.355 199.385 34.355C198.653 34.355 198.046 34.6375 197.553 35.2075C197.06 35.7776 196.811 36.4993 196.811 37.3779V37.6865C196.811 38.5599 197.055 39.2711 197.542 39.8255C198.03 40.3851 198.664 40.6623 199.442 40.6623C199.925 40.6623 200.335 40.589 200.678 40.4374C201.026 40.2909 201.301 40.1079 201.513 39.883L201.228 39.4228C201.026 39.6267 200.766 39.7889 200.46 39.9092C200.153 40.0347 199.811 40.0922 199.442 40.0922C198.83 40.0922 198.352 39.8673 198.004 39.4071C197.657 38.9521 197.48 38.3768 197.48 37.6865V37.4982H201.68ZM198.119 35.4847C198.451 35.1134 198.871 34.9251 199.385 34.9251C199.899 34.9251 200.309 35.1029 200.589 35.4533C200.87 35.8037 201.01 36.2483 201.01 36.7869V36.9281H197.553L197.537 36.8915C197.594 36.3215 197.786 35.8508 198.119 35.4847Z" fill="#1D1D1B"/>
<path d="M207.15 34.9565C206.808 34.5538 206.309 34.355 205.655 34.355C205.209 34.355 204.82 34.4544 204.493 34.6584C204.166 34.8623 203.901 35.15 203.704 35.5213L203.641 34.4649H203.055V40.542H203.719V36.243C203.854 35.8456 204.062 35.5265 204.352 35.2912C204.648 35.0558 205.032 34.9356 205.505 34.9356C205.977 34.9356 206.351 35.082 206.605 35.3696C206.865 35.6573 206.995 36.1489 206.995 36.8497V40.542H207.664V36.8392C207.664 35.9868 207.493 35.3592 207.15 34.9565Z" fill="#1D1D1B"/>
<path d="M211.77 40.0085C211.667 40.0346 211.573 40.0503 211.501 40.0556C211.423 40.066 211.345 40.0713 211.262 40.0713C211.023 40.0713 210.831 39.9876 210.691 39.8202C210.545 39.6529 210.473 39.3757 210.473 38.9782V35.014H211.802V34.4648H210.473V32.9116H209.798V34.4648H208.76V35.014H209.798V38.9782C209.798 39.5587 209.917 39.9876 210.156 40.2595C210.39 40.5263 210.722 40.6622 211.142 40.6622C211.272 40.6622 211.407 40.6465 211.537 40.6204C211.672 40.5942 211.781 40.5576 211.869 40.5106L211.77 40.0085Z" fill="#1D1D1B"/>
<path d="M217.527 39.9405C217.501 39.7418 217.491 39.5326 217.491 39.3182V36.3319C217.491 35.6939 217.288 35.2023 216.889 34.8623C216.489 34.5224 215.954 34.355 215.295 34.355C214.636 34.355 214.096 34.5276 213.686 34.8728C213.276 35.218 213.078 35.6207 213.104 36.0757L213.115 36.1123H213.733C213.733 35.7723 213.873 35.4899 214.153 35.265C214.433 35.0402 214.802 34.9251 215.259 34.9251C215.757 34.9251 216.146 35.0506 216.416 35.2964C216.691 35.5422 216.826 35.8822 216.826 36.3215V37.0746H215.342C214.589 37.0746 213.976 37.2419 213.504 37.5766C213.032 37.9166 212.793 38.3559 212.793 38.8998C212.793 39.4437 212.959 39.8726 213.281 40.1863C213.608 40.5054 214.065 40.6623 214.656 40.6623C215.144 40.6623 215.575 40.5524 215.949 40.338C216.328 40.1236 216.619 39.8516 216.826 39.5222C216.826 39.6843 216.837 39.8412 216.857 39.9928C216.878 40.1497 216.909 40.3328 216.951 40.542H217.646C217.589 40.3432 217.553 40.1445 217.527 39.9405ZM216.826 38.7534C216.691 39.1351 216.437 39.4542 216.063 39.7C215.689 39.9458 215.243 40.0661 214.729 40.0661C214.335 40.0661 214.028 39.9615 213.8 39.7523C213.577 39.5431 213.463 39.2659 213.463 38.9207C213.463 38.5546 213.639 38.2408 213.992 37.9793C214.345 37.7178 214.797 37.5871 215.336 37.5871H216.826V38.7534Z" fill="#1D1D1B"/>
<path d="M221.628 40.0085C221.524 40.0346 221.436 40.0503 221.358 40.0556C221.28 40.066 221.202 40.0713 221.119 40.0713C220.886 40.0713 220.694 39.9876 220.548 39.8202C220.408 39.6529 220.335 39.3757 220.335 38.9782V35.014H221.664V34.4648H220.335V32.9116H219.661V34.4648H218.617V35.014H219.661V38.9782C219.661 39.5587 219.78 39.9876 220.014 40.2595C220.252 40.5263 220.579 40.6622 221.005 40.6622C221.135 40.6622 221.265 40.6465 221.394 40.6204C221.529 40.5942 221.638 40.5576 221.726 40.5106L221.628 40.0085Z" fill="#1D1D1B"/>
<path d="M223.07 31.7819V32.7233H223.735V31.7819H223.07ZM223.07 34.4648V40.542H223.735V34.4648H223.07Z" fill="#1D1D1B"/>
<path d="M229.84 35.2127C229.352 34.6375 228.703 34.355 227.899 34.355C227.094 34.355 226.45 34.6375 225.962 35.2127C225.474 35.788 225.23 36.5202 225.23 37.4145V37.6028C225.23 38.4971 225.474 39.2345 225.962 39.8046C226.45 40.3746 227.099 40.6623 227.909 40.6623C228.719 40.6623 229.357 40.3746 229.84 39.8046C230.328 39.2345 230.567 38.4971 230.567 37.6028V37.4145C230.567 36.5202 230.323 35.788 229.84 35.2127ZM229.902 37.6028C229.902 38.3036 229.726 38.8946 229.373 39.3757C229.015 39.8569 228.527 40.0922 227.909 40.0922C227.291 40.0922 226.783 39.8569 226.43 39.3757C226.077 38.8946 225.9 38.3036 225.9 37.6028V37.4145C225.9 36.7242 226.077 36.1332 226.43 35.652C226.783 35.1657 227.27 34.9251 227.899 34.9251C228.527 34.9251 229.015 35.1657 229.368 35.652C229.726 36.1332 229.902 36.7242 229.902 37.4145V37.6028Z" fill="#1D1D1B"/>
<path d="M236.084 34.9565C235.742 34.5538 235.243 34.355 234.589 34.355C234.138 34.355 233.748 34.4544 233.421 34.6584C233.094 34.8623 232.835 35.15 232.637 35.5213L232.575 34.4649H231.983V40.542H232.653V36.243C232.783 35.8456 232.996 35.5265 233.286 35.2912C233.577 35.0558 233.961 34.9356 234.439 34.9356C234.916 34.9356 235.28 35.082 235.539 35.3696C235.799 35.6573 235.928 36.1489 235.928 36.8497V40.542H236.598V36.8392C236.598 35.9868 236.427 35.3592 236.084 34.9565Z" fill="#1D1D1B"/>
<path d="M202.09 6.83544L205.879 9.02676C207.551 6.34383 210.468 4.5343 213.811 4.40878V0C208.848 0.135977 204.519 2.83982 202.09 6.83544Z" fill="#1D1D1B"/>
<path d="M214.578 0V4.40355C219.816 4.60752 224.005 8.93785 224.02 14.2671C224.031 18.4144 221.508 21.9707 217.916 23.4507L219.416 27.5876C224.685 25.4904 228.401 20.3076 228.386 14.2514C228.365 6.50073 222.224 0.203965 214.583 0H214.578Z" fill="#1D1D1B"/>
<path d="M214.22 24.1882C208.796 24.2039 204.384 19.7846 204.373 14.3194C204.373 12.6511 204.773 11.0821 205.495 9.70143L201.7 7.50488C200.615 9.53407 199.998 11.8614 200.008 14.3299C200.029 22.2217 206.398 28.6074 214.236 28.5865C215.793 28.5865 217.293 28.325 218.695 27.8543L217.195 23.7175C216.26 24.0208 215.259 24.1829 214.22 24.1882Z" fill="#1D1D1B"/>
</g>
<defs>
<clipPath id="clip0_2321_2217">
<rect width="244" height="43" fill="white"/>
</clipPath>
</defs>
</svg>
