<svg width="300" height="56" viewBox="0 0 300 56" fill="none" xmlns="http://www.w3.org/2000/svg">
<mask id="mask0_0_6" style="mask-type:luminance" maskUnits="userSpaceOnUse" x="0" y="1" width="300" height="54">
<path d="M300 1H0V54.1818H300V1Z" fill="white"/>
</mask>
<g mask="url(#mask0_0_6)">
<path d="M18.7125 14.0465C18.4827 12.7205 18.1573 11.595 17.7297 10.6571C17.302 9.72572 16.7851 8.956 16.1852 8.35445C15.5789 7.7529 14.9087 7.2872 14.1748 6.95085C13.4408 6.61449 12.6431 6.38164 11.7879 6.2458C10.9263 6.11644 10.0328 6.05176 9.09458 6.05176H0V31.7371H9.09458C10.103 31.7371 11.0475 31.6724 11.9283 31.5431C12.809 31.4072 13.6195 31.1679 14.3599 30.8122C15.1002 30.4564 15.7639 29.9713 16.3447 29.3568C16.9255 28.7359 17.4169 27.9467 17.819 26.9765C18.2211 26.0127 18.5274 24.8484 18.7444 23.4837C18.955 22.1254 19.0635 20.5212 19.0635 18.6907C19.0635 16.8601 18.9486 15.3661 18.7125 14.0465ZM14.3599 22.4422C14.2003 23.4642 13.9769 24.3181 13.6897 24.9907C13.3962 25.6635 13.0451 26.1809 12.6431 26.5432C12.2282 26.9118 11.7815 27.1835 11.29 27.3646C10.7986 27.5457 10.2689 27.6492 9.70089 27.6815C9.13288 27.7074 8.54572 27.7268 7.93941 27.7268H4.26329V10.0621H7.93941C8.57125 10.0621 9.17117 10.0815 9.74556 10.1203C10.32 10.1526 10.8561 10.2626 11.3539 10.4308C11.8517 10.6054 12.2984 10.8706 12.6941 11.2263C13.0898 11.5821 13.4281 12.0737 13.7153 12.7141C13.9961 13.3479 14.2195 14.15 14.3726 15.1138C14.5258 16.0775 14.6024 17.2612 14.6024 18.6519C14.6024 20.1525 14.5258 21.4138 14.3599 22.4422Z" fill="#F9FCFF"/>
<path d="M35.2996 6.05176H29.6514L21.4248 31.7371H26.0774L28.1197 24.7708H36.7548L38.8864 31.7371H43.5901L35.2996 6.05176ZM29.2557 20.9028L32.383 10.0297H32.4532L35.5804 20.9028H29.2557Z" fill="#F9FCFF"/>
<path d="M44.126 6.05176V10.0297H51.7271V31.7371H55.9585V10.0297H63.6299V6.05176H44.126Z" fill="#F9FCFF"/>
<path d="M78.0408 6.05176H72.3926L64.166 31.7371H68.8186L70.8609 24.7708H79.496L81.6276 31.7371H86.3313L78.0408 6.05176ZM71.9969 20.9028L75.1242 10.0297H75.1944L78.3217 20.9028H71.9969Z" fill="#F9FCFF"/>
<path d="M105.127 10.0621V6.05176H89.8867V31.7371H94.15V21.8213H103.762V17.8045H94.15V10.0621H105.127Z" fill="#FFFAFA"/>
<path d="M120.565 6.05176H114.917L106.69 31.7371H111.349L113.392 24.7708H122.02L124.152 31.7371H128.862L120.565 6.05176ZM114.528 20.9028L117.655 10.0297H117.725L120.852 20.9028H114.528Z" fill="#FFFAFA"/>
<path d="M149.781 21.9126C149.628 21.3175 149.423 20.8065 149.174 20.3925C148.926 19.9721 148.651 19.6228 148.338 19.3576C148.032 19.086 147.719 18.8725 147.4 18.7108C147.081 18.5491 146.775 18.4262 146.475 18.3485C146.181 18.2709 145.926 18.2192 145.709 18.1933V18.161C146.041 18.0898 146.398 17.967 146.775 17.8052C147.158 17.6435 147.502 17.3784 147.809 17.0032C148.115 16.6345 148.37 16.13 148.581 15.4896C148.785 14.8558 148.894 14.0278 148.894 13.0058C148.894 11.8027 148.76 10.7613 148.498 9.88167C148.243 8.99552 147.828 8.26461 147.266 7.68246C146.705 7.10032 145.983 6.66695 145.109 6.38235C144.235 6.10422 143.169 5.96191 141.931 5.96191H132V31.6473H142.441C143.724 31.6473 144.841 31.5502 145.792 31.3432C146.743 31.1428 147.534 30.7546 148.153 30.1919C148.779 29.6291 149.238 28.8465 149.551 27.8569C149.857 26.8608 150.01 25.5736 150.01 23.9889C150.01 23.1933 149.934 22.5012 149.781 21.9126ZM136.263 9.90107H141.203C141.746 9.90107 142.231 9.95928 142.665 10.0628C143.099 10.1727 143.462 10.3538 143.756 10.6061C144.056 10.8584 144.279 11.2012 144.432 11.6281C144.586 12.055 144.662 12.5853 144.662 13.2257C144.662 13.9955 144.598 14.6164 144.471 15.0821C144.337 15.5543 144.126 15.9166 143.839 16.1753C143.545 16.434 143.175 16.6087 142.728 16.6927C142.275 16.7768 141.733 16.8156 141.095 16.8156H136.263V9.90107ZM145.275 25.9358C145.103 26.408 144.86 26.7767 144.547 27.0419C144.235 27.3071 143.858 27.4818 143.411 27.5723C142.971 27.6629 142.473 27.7081 141.931 27.7081H136.263V20.4701H141.714C142.377 20.4701 142.952 20.509 143.43 20.5866C143.909 20.6642 144.305 20.8323 144.618 21.0846C144.93 21.3369 145.166 21.6991 145.313 22.1713C145.46 22.6435 145.537 23.2709 145.537 24.0536C145.537 24.8362 145.447 25.4572 145.275 25.9358Z" fill="#FFFAFA"/>
<path d="M168.527 21.3362V21.2974C169.344 21.071 170.078 20.67 170.736 20.0943C171.004 19.842 171.272 19.538 171.54 19.1887C171.808 18.8459 172.044 18.4385 172.248 17.9663C172.459 17.5005 172.625 16.9636 172.746 16.3557C172.874 15.7476 172.937 15.062 172.937 14.2923C172.937 13.141 172.842 12.1384 172.65 11.291C172.459 10.4372 172.191 9.70631 171.84 9.09183C171.495 8.47735 171.08 7.97929 170.608 7.5912C170.136 7.19664 169.612 6.89263 169.038 6.65978C168.464 6.43339 167.851 6.27815 167.206 6.18759C166.562 6.09704 165.904 6.05176 165.228 6.05176H155.795V31.7371H160.058V22.3065H164.264L169.006 31.7371H173.876L168.527 21.3362ZM165.189 18.2379H160.058V10.0621H165.081C165.604 10.0621 166.077 10.1332 166.504 10.2691C166.932 10.4114 167.296 10.6377 167.596 10.9482C167.902 11.2587 168.132 11.6726 168.291 12.1772C168.451 12.6882 168.527 13.3091 168.527 14.0465C168.527 16.8408 167.417 18.2379 165.189 18.2379Z" fill="#FFFAFA"/>
<path d="M178.694 6.05176V31.7371H182.958V6.05176H178.694Z" fill="#FFFAFA"/>
<path d="M203.987 28.0695C203.54 28.0889 202.991 28.1148 202.353 28.1407C201.715 28.16 201.006 28.173 200.221 28.173C199.621 28.173 199.015 28.1471 198.409 28.0954C197.809 28.0436 197.228 27.9079 196.673 27.7009C196.111 27.4874 195.6 27.1834 195.122 26.7694C194.65 26.3619 194.235 25.8057 193.884 25.1007C193.526 24.3955 193.245 23.5094 193.048 22.4551C192.843 21.4008 192.741 20.1331 192.741 18.6453C192.741 17.1576 192.843 16.0257 193.035 15.0296C193.233 14.0334 193.507 13.2056 193.852 12.5393C194.203 11.8731 194.618 11.3492 195.09 10.961C195.562 10.5794 196.073 10.2884 196.628 10.0943C197.177 9.89379 197.751 9.77089 198.351 9.72562C198.945 9.67388 199.545 9.648 200.151 9.648C200.815 9.648 201.453 9.66741 202.059 9.69328C202.672 9.72562 203.214 9.75149 203.687 9.77736C204.242 9.80971 204.765 9.84852 205.25 9.88732V6.78904C204.765 6.56912 204.178 6.38154 203.489 6.21337C202.902 6.07107 202.161 5.93523 201.287 5.81881C200.413 5.69591 199.379 5.6377 198.198 5.6377C197.496 5.6377 196.768 5.70884 196.015 5.86408C195.256 6.01286 194.509 6.27159 193.775 6.64674C193.041 7.01543 192.339 7.51995 191.675 8.14737C191.018 8.77478 190.437 9.57685 189.939 10.5536C189.442 11.5238 189.046 12.6751 188.746 14.0141C188.452 15.353 188.306 16.9118 188.306 18.6906C188.306 20.4694 188.433 22.1511 188.695 23.5289C188.957 24.913 189.314 26.1032 189.78 27.1058C190.239 28.1083 190.782 28.9363 191.414 29.5896C192.039 30.2428 192.716 30.7603 193.443 31.1484C194.177 31.5301 194.943 31.8017 195.754 31.9569C196.564 32.1122 197.381 32.1898 198.198 32.1898C199.379 32.1898 200.419 32.1316 201.313 32.0151C202.206 31.9052 202.966 31.7758 203.578 31.627C204.293 31.4718 204.906 31.2842 205.429 31.0708V27.9596C205.001 27.9919 204.523 28.0307 203.987 28.0695Z" fill="#FFFAFA"/>
<path d="M221.397 6.05176H215.749L207.522 31.7371H212.175L214.224 24.7708H222.852L224.984 31.7371H229.694L221.397 6.05176ZM215.36 20.9028L218.487 10.0297H218.557L221.678 20.9028H215.36Z" fill="#FFFAFA"/>
<path d="M230.224 6.05176V10.0297H237.831V31.7371H242.056V10.0297H244.858C245.503 8.60671 246.307 7.27425 247.245 6.05176H230.224Z" fill="#FFFAFA"/>
<path d="M294.652 21.3362V21.2974C295.469 21.071 296.203 20.67 296.854 20.0943C297.128 19.842 297.396 19.538 297.664 19.1887C297.926 18.8459 298.168 18.4385 298.373 17.9663C298.577 17.5005 298.743 16.9636 298.87 16.3557C298.992 15.7476 299.056 15.062 299.056 14.2923C299.056 13.141 298.96 12.1384 298.775 11.291C298.583 10.4372 298.315 9.70631 297.964 9.09183C297.613 8.47735 297.205 7.97929 296.732 7.5912C296.254 7.19664 295.73 6.89263 295.156 6.65978C294.582 6.43339 293.975 6.27815 293.331 6.18759C292.68 6.09704 292.022 6.05176 291.346 6.05176H281.913V10.172C283.075 12.7658 283.719 15.6441 283.719 18.6777C283.719 21.7113 283.075 24.5897 281.913 27.1835V31.7371H286.176V22.3065H290.389L295.131 31.7371H300L294.652 21.3362ZM291.314 18.2379H286.176V10.0621H291.206C291.729 10.0621 292.201 10.1332 292.629 10.2691C293.05 10.4114 293.42 10.6377 293.72 10.9482C294.02 11.2587 294.25 11.6726 294.409 12.1772C294.569 12.6882 294.652 13.3091 294.652 14.0465C294.652 16.8408 293.535 18.2379 291.314 18.2379Z" fill="#FFFAFA"/>
<path d="M18.1258 50.3659C18.0492 50.1136 18.0173 49.8355 18.0173 49.5185V48.5677C18.0173 47.9532 17.8769 47.4487 17.6089 47.0412C17.3344 46.6337 16.8877 46.3556 16.275 46.2003C16.8303 45.9998 17.2579 45.6958 17.5642 45.2689C17.8705 44.8484 18.0237 44.3633 18.0237 43.8264C18.0237 42.9144 17.7365 42.2223 17.1621 41.7437C16.5941 41.2715 15.7708 41.0322 14.705 41.0322H11.3799V51.1421H12.2032V46.5755H14.9411C15.6496 46.5755 16.2048 46.7501 16.6005 47.1123C16.9962 47.4681 17.194 47.9597 17.194 48.5807V49.5056C17.194 49.829 17.2259 50.1395 17.2961 50.4435C17.36 50.741 17.4812 50.9803 17.6535 51.1421H18.4896V50.9803C18.3173 50.8187 18.196 50.6181 18.1258 50.3659ZM14.6093 45.864H12.2032V41.7437H14.705C15.5411 41.7437 16.1729 41.9248 16.5877 42.2806C16.9962 42.6428 17.2068 43.1538 17.2068 43.82C17.2068 44.4474 16.9962 44.9455 16.5813 45.3142C16.1665 45.6764 15.5091 45.864 14.6093 45.864Z" fill="#F9FCFF"/>
<path d="M25.963 47.3772V46.7304C25.963 45.7407 25.7141 44.9516 25.2227 44.3695C24.7313 43.7808 24.0356 43.4897 23.1357 43.4897C22.2358 43.4897 21.4891 43.8391 20.8828 44.5441C20.2765 45.2492 19.9766 46.1418 19.9766 47.2284V47.61C19.9766 48.6903 20.2765 49.5699 20.8764 50.2556C21.47 50.9477 22.2486 51.2905 23.2123 51.2905C23.7995 51.2905 24.3101 51.2 24.7313 51.0123C25.1525 50.8313 25.4971 50.6048 25.7524 50.3267L25.4078 49.7575C25.1525 50.0098 24.8398 50.2103 24.4568 50.3591C24.0803 50.5143 23.6655 50.5855 23.2123 50.5855C22.4592 50.5855 21.8657 50.3073 21.4381 49.7381C21.0105 49.1753 20.7999 48.4639 20.7999 47.61V47.3772H25.963ZM21.5785 44.887C21.9869 44.4277 22.5039 44.1949 23.1357 44.1949C23.7676 44.1949 24.2781 44.4148 24.6228 44.8482C24.9674 45.2814 25.1397 45.8313 25.1397 46.4975V46.6722H20.8892L20.8637 46.6268C20.9339 45.9218 21.17 45.3397 21.5785 44.887Z" fill="#F9FCFF"/>
<path d="M33.0534 50.3979C33.0215 50.1521 33.0087 49.8934 33.0087 49.6282V45.9347C33.0087 45.1457 32.7598 44.5376 32.2684 44.1172C31.777 43.6968 31.1196 43.4897 30.3091 43.4897C29.4985 43.4897 28.8348 43.7032 28.3306 44.1301C27.8264 44.5571 27.5839 45.0551 27.6158 45.6179L27.6286 45.6631H28.388C28.388 45.2426 28.5604 44.8934 28.905 44.6152C29.2496 44.3372 29.7028 44.1949 30.2644 44.1949C30.8771 44.1949 31.3558 44.3501 31.6876 44.654C32.0259 44.9581 32.1918 45.3785 32.1918 45.9218V46.8533H30.3665C29.4411 46.8533 28.688 47.0602 28.1072 47.4743C27.5265 47.8946 27.2393 48.438 27.2393 49.1106C27.2393 49.7834 27.4371 50.3137 27.8392 50.7019C28.2349 51.0964 28.7965 51.2905 29.5241 51.2905C30.124 51.2905 30.6537 51.1546 31.1196 50.8894C31.5791 50.6243 31.9365 50.2879 32.1918 49.8804C32.1918 50.0809 32.2046 50.2749 32.2301 50.4625C32.2556 50.6566 32.2939 50.883 32.345 51.1417H33.2002C33.13 50.8959 33.0853 50.6502 33.0534 50.3979ZM32.1918 48.9295C32.0259 49.4017 31.7132 49.7963 31.2536 50.1004C30.7941 50.4043 30.2453 50.5531 29.6134 50.5531C29.1284 50.5531 28.7518 50.4237 28.471 50.165C28.1966 49.9063 28.0562 49.5635 28.0562 49.1365C28.0562 48.6838 28.2732 48.2957 28.7072 47.9723C29.1475 47.6488 29.6964 47.4872 30.3601 47.4872H32.1918V48.9295Z" fill="#F9FCFF"/>
<path d="M35.3252 40.3076V51.1419H36.1421V40.3076H35.3252Z" fill="#F9FCFF"/>
<path d="M41.127 41.0254V41.7369H44.6435V51.1418H45.4604V41.7369H48.8621V41.0254H41.127Z" fill="#F9FCFF"/>
<path d="M50.4062 40.3076V41.4719H51.2233V40.3076H50.4062ZM50.4062 43.6258V51.1419H51.2233V43.6258H50.4062Z" fill="#F9FCFF"/>
<path d="M63.1774 44.2854C62.7434 43.755 62.1307 43.4897 61.3393 43.4897C60.7585 43.4897 60.2544 43.6385 59.8459 43.9296C59.4311 44.2272 59.1119 44.6411 58.8886 45.1586C58.7226 44.5959 58.4482 44.1754 58.0717 43.8973C57.6887 43.6256 57.2164 43.4897 56.6484 43.4897C56.0804 43.4897 55.64 43.6063 55.2444 43.8455C54.8487 44.0913 54.5296 44.4277 54.2934 44.8611L54.2168 43.6256H53.4893V51.1417H54.3126V45.8442C54.453 45.3397 54.6891 44.9451 55.0274 44.6476C55.372 44.3565 55.8315 44.2078 56.4059 44.2078C56.9803 44.2078 57.4271 44.4083 57.7525 44.7964C58.078 45.1909 58.244 45.8378 58.244 46.7434V51.1417H59.0737V46.6334C59.0737 46.5557 59.0673 46.4911 59.0673 46.4393V46.2905C59.1566 45.676 59.3736 45.178 59.7183 44.7899C60.0565 44.4018 60.5415 44.2078 61.167 44.2078C61.7414 44.2078 62.1881 44.4018 62.5136 44.7834C62.8391 45.165 62.9987 45.8183 62.9987 46.7434V51.1417H63.822V46.7627C63.822 45.6437 63.605 44.8158 63.1774 44.2854Z" fill="#F9FCFF"/>
<path d="M71.5568 47.3772V46.7304C71.5568 45.7407 71.3079 44.9516 70.8165 44.3695C70.325 43.7808 69.6294 43.4897 68.7295 43.4897C67.8296 43.4897 67.0829 43.8391 66.4766 44.5441C65.8767 45.2492 65.5703 46.1418 65.5703 47.2284V47.61C65.5703 48.6903 65.8703 49.5699 66.4702 50.2556C67.0701 50.9477 67.8487 51.2905 68.8061 51.2905C69.3996 51.2905 69.9038 51.2 70.325 51.0123C70.7463 50.8313 71.0909 50.6048 71.3526 50.3267L71.0015 49.7575C70.7526 50.0098 70.4335 50.2103 70.057 50.3591C69.674 50.5143 69.2592 50.5855 68.8061 50.5855C68.053 50.5855 67.4594 50.3073 67.0318 49.7381C66.6042 49.1753 66.3936 48.4639 66.3936 47.61V47.3772H71.5568ZM67.1722 44.887C67.5807 44.4277 68.104 44.1949 68.7295 44.1949C69.3549 44.1949 69.8719 44.4148 70.2165 44.8482C70.5612 45.2814 70.7335 45.8313 70.7335 46.4975V46.6722H66.483L66.4638 46.6268C66.534 45.9218 66.7702 45.3397 67.1722 44.887Z" fill="#F9FCFF"/>
<path d="M82.9493 42.2673C82.1516 41.4394 81.1432 41.0254 79.9242 41.0254H76.8799V51.1418H79.9242C81.1432 51.1418 82.1516 50.7342 82.9493 49.9128C83.7471 49.0913 84.1428 48.0305 84.1428 46.7369V45.4367C84.1428 44.1496 83.7471 43.0888 82.9493 42.2673ZM83.3195 46.7369C83.3195 47.8106 83.0004 48.6968 82.3622 49.3954C81.7239 50.0939 80.907 50.4431 79.9242 50.4431H77.7032V41.7369H79.9242C80.907 41.7369 81.7176 42.0862 82.3622 42.7848C83.0004 43.4834 83.3195 44.3631 83.3195 45.4174V46.7369Z" fill="#F9FCFF"/>
<path d="M91.5651 50.3979C91.5396 50.1521 91.5204 49.8934 91.5204 49.6282V45.9347C91.5204 45.1457 91.2779 44.5376 90.7801 44.1172C90.2887 43.6968 89.6377 43.4897 88.8208 43.4897C88.0039 43.4897 87.3465 43.7032 86.8423 44.1301C86.3381 44.5571 86.102 45.0551 86.1275 45.6179L86.1403 45.6631H86.8998C86.8998 45.2426 87.0721 44.8934 87.4167 44.6152C87.7614 44.3372 88.2209 44.1949 88.7825 44.1949C89.3952 44.1949 89.8675 44.3501 90.2057 44.654C90.5376 44.9581 90.7099 45.3785 90.7099 45.9218V46.8533H88.8846C87.9528 46.8533 87.1997 47.0602 86.619 47.4743C86.0382 47.8946 85.751 48.438 85.751 49.1106C85.751 49.7834 85.9488 50.3137 86.3509 50.7019C86.7466 51.0964 87.3146 51.2905 88.0422 51.2905C88.6357 51.2905 89.1654 51.1546 89.6313 50.8894C90.0908 50.6243 90.4483 50.2879 90.7099 49.8804C90.7099 50.0809 90.7163 50.2749 90.7418 50.4625C90.7674 50.6566 90.8057 50.883 90.8567 51.1417H91.7119C91.6481 50.8959 91.597 50.6502 91.5651 50.3979ZM90.7099 48.9295C90.544 49.4017 90.2313 49.7963 89.7654 50.1004C89.3058 50.4043 88.757 50.5531 88.1315 50.5531C87.6465 50.5531 87.2636 50.4237 86.9891 50.165C86.7083 49.9063 86.5743 49.5635 86.5743 49.1365C86.5743 48.6838 86.7913 48.2957 87.2253 47.9723C87.6592 47.6488 88.2081 47.4872 88.8782 47.4872H90.7099V48.9295Z" fill="#F9FCFF"/>
<path d="M96.6133 50.482C96.4793 50.5143 96.3708 50.5337 96.2751 50.5402C96.1857 50.5532 96.0836 50.5596 95.9879 50.5596C95.6943 50.5596 95.4581 50.4561 95.2858 50.2491C95.1071 50.0422 95.0178 49.6993 95.0178 49.2078V44.3048H96.6516V43.6257H95.0178V41.7046H94.1881V43.6257H92.9053V44.3048H94.1881V49.2078C94.1881 49.9257 94.3349 50.4561 94.6285 50.7925C94.9157 51.1223 95.3241 51.2905 95.8411 51.2905C96.0006 51.2905 96.1602 51.2711 96.3261 51.2387C96.4857 51.2064 96.6261 51.1611 96.7346 51.103L96.6133 50.482Z" fill="#F9FCFF"/>
<path d="M103.691 50.3979C103.659 50.1521 103.646 49.8934 103.646 49.6282V45.9347C103.646 45.1457 103.397 44.5376 102.906 44.1172C102.408 43.6968 101.757 43.4897 100.946 43.4897C100.136 43.4897 99.472 43.7032 98.9679 44.1301C98.4573 44.5571 98.2211 45.0551 98.2467 45.6179L98.2594 45.6631H99.0253C99.0253 45.2426 99.1976 44.8934 99.5422 44.6152C99.8869 44.3372 100.34 44.1949 100.902 44.1949C101.514 44.1949 101.987 44.3501 102.325 44.654C102.663 44.9581 102.829 45.3785 102.829 45.9218V46.8533H101.004C100.078 46.8533 99.3252 47.0602 98.7445 47.4743C98.1637 47.8946 97.8701 48.438 97.8701 49.1106C97.8701 49.7834 98.0743 50.3137 98.47 50.7019C98.8721 51.0964 99.4337 51.2905 100.161 51.2905C100.761 51.2905 101.291 51.1546 101.75 50.8894C102.216 50.6243 102.574 50.2879 102.829 49.8804C102.829 50.0809 102.842 50.2749 102.867 50.4625C102.893 50.6566 102.931 50.883 102.982 51.1417H103.837C103.767 50.8959 103.716 50.6502 103.691 50.3979ZM102.829 48.9295C102.663 49.4017 102.35 49.7963 101.891 50.1004C101.425 50.4043 100.882 50.5531 100.251 50.5531C99.7656 50.5531 99.3827 50.4237 99.1082 50.165C98.8338 49.9063 98.6934 49.5635 98.6934 49.1365C98.6934 48.6838 98.9104 48.2957 99.3444 47.9723C99.7784 47.6488 100.334 47.4872 100.997 47.4872H102.829V48.9295Z" fill="#F9FCFF"/>
<path d="M112.92 41.0254H112.147L108.478 51.1418H109.333L110.335 48.3216H114.719L115.715 51.1418H116.564L112.92 41.0254ZM110.596 47.5778L112.517 42.2156H112.556L114.451 47.5778H110.596Z" fill="#F9FCFF"/>
<path d="M122.939 43.6256L122.824 44.8094C122.569 44.3889 122.25 44.059 121.861 43.8326C121.471 43.5997 121.018 43.4897 120.488 43.4897C119.595 43.4897 118.899 43.8455 118.395 44.57C117.897 45.288 117.648 46.2453 117.648 47.4484V47.5907C117.648 48.7162 117.897 49.6087 118.395 50.2814C118.899 50.9541 119.589 51.2905 120.476 51.2905C120.986 51.2905 121.433 51.187 121.816 50.9865C122.205 50.7859 122.524 50.4949 122.773 50.1197V51.187C122.773 51.9243 122.595 52.4871 122.231 52.8687C121.873 53.2439 121.325 53.4379 120.597 53.4379C120.208 53.4379 119.85 53.3991 119.512 53.3215C119.18 53.2439 118.861 53.134 118.567 52.9852L118.408 53.6902C118.708 53.839 119.059 53.9618 119.467 54.046C119.869 54.1365 120.252 54.1817 120.61 54.1817C121.561 54.1817 122.301 53.923 122.824 53.4056C123.341 52.8817 123.603 52.1442 123.603 51.187V43.6256H122.939ZM122.773 49.2272C122.575 49.6411 122.301 49.971 121.95 50.2103C121.593 50.4496 121.159 50.566 120.635 50.566C119.914 50.566 119.372 50.3008 119.008 49.7639C118.65 49.2272 118.472 48.5027 118.472 47.5907V47.4484C118.472 46.4911 118.65 45.7148 119.014 45.1133C119.384 44.5117 119.927 44.2078 120.648 44.2078C121.191 44.2078 121.631 44.3436 121.976 44.6088C122.32 44.874 122.588 45.2168 122.773 45.6437V49.2272Z" fill="#F9FCFF"/>
<path d="M130.783 43.6256L130.668 44.8094C130.413 44.3889 130.094 44.059 129.704 43.8326C129.315 43.5997 128.862 43.4897 128.332 43.4897C127.439 43.4897 126.743 43.8455 126.239 44.57C125.741 45.288 125.492 46.2453 125.492 47.4484V47.5907C125.492 48.7162 125.741 49.6087 126.239 50.2814C126.743 50.9541 127.432 51.2905 128.319 51.2905C128.83 51.2905 129.277 51.187 129.66 50.9865C130.049 50.7859 130.368 50.4949 130.617 50.1197V51.187C130.617 51.9243 130.438 52.4871 130.075 52.8687C129.717 53.2439 129.168 53.4379 128.441 53.4379C128.051 53.4379 127.694 53.3991 127.356 53.3215C127.024 53.2439 126.705 53.134 126.411 52.9852L126.252 53.6902C126.552 53.839 126.903 53.9618 127.311 54.046C127.713 54.1365 128.096 54.1817 128.454 54.1817C129.404 54.1817 130.145 53.923 130.668 53.4056C131.185 52.8817 131.447 52.1442 131.447 51.187V43.6256H130.783ZM130.617 49.2272C130.419 49.6411 130.145 49.971 129.794 50.2103C129.436 50.4496 129.002 50.566 128.479 50.566C127.758 50.566 127.215 50.3008 126.852 49.7639C126.494 49.2272 126.315 48.5027 126.315 47.5907V47.4484C126.315 46.4911 126.494 45.7148 126.858 45.1133C127.228 44.5117 127.771 44.2078 128.492 44.2078C129.034 44.2078 129.475 44.3436 129.819 44.6088C130.164 44.874 130.432 45.2168 130.617 45.6437V49.2272Z" fill="#F9FCFF"/>
<path d="M136.891 43.5092C136.802 43.4963 136.706 43.4897 136.604 43.4897C136.106 43.4897 135.679 43.6192 135.315 43.8779C134.957 44.1366 134.664 44.4988 134.453 44.9581V44.874L134.351 43.6256H133.63V51.1417H134.453V45.9542C134.594 45.4367 134.83 45.0357 135.162 44.7446C135.493 44.4471 135.915 44.2984 136.432 44.2984L137.019 44.3436L137.121 43.5609C137.057 43.548 136.981 43.5285 136.891 43.5092Z" fill="#F9FCFF"/>
<path d="M143.886 47.3772V46.7304C143.886 45.7407 143.637 44.9516 143.152 44.3695C142.654 43.7808 141.958 43.4897 141.059 43.4897C140.159 43.4897 139.412 43.8391 138.812 44.5441C138.206 45.2492 137.899 46.1418 137.899 47.2284V47.61C137.899 48.6903 138.199 49.5699 138.799 50.2556C139.399 50.9477 140.178 51.2905 141.135 51.2905C141.729 51.2905 142.233 51.2 142.654 51.0123C143.075 50.8313 143.42 50.6048 143.682 50.3267L143.331 49.7575C143.082 50.0098 142.763 50.2103 142.386 50.3591C142.003 50.5143 141.588 50.5855 141.135 50.5855C140.382 50.5855 139.789 50.3073 139.367 49.7381C138.94 49.1753 138.723 48.4639 138.723 47.61V47.3772H143.886ZM139.508 44.887C139.91 44.4277 140.433 44.1949 141.059 44.1949C141.684 44.1949 142.201 44.4148 142.546 44.8482C142.89 45.2814 143.063 45.8313 143.063 46.4975V46.6722H138.812L138.793 46.6268C138.863 45.9218 139.099 45.3397 139.508 44.887Z" fill="#F9FCFF"/>
<path d="M150.568 43.6256L150.453 44.8094C150.204 44.3889 149.885 44.059 149.496 43.8326C149.107 43.5997 148.647 43.4897 148.124 43.4897C147.23 43.4897 146.528 43.8455 146.03 44.57C145.526 45.288 145.277 46.2453 145.277 47.4484V47.5907C145.277 48.7162 145.526 49.6087 146.03 50.2814C146.528 50.9541 147.224 51.2905 148.111 51.2905C148.615 51.2905 149.062 51.187 149.451 50.9865C149.834 50.7859 150.153 50.4949 150.409 50.1197V51.187C150.409 51.9243 150.224 52.4871 149.866 52.8687C149.502 53.2439 148.96 53.4379 148.226 53.4379C147.843 53.4379 147.486 53.3991 147.147 53.3215C146.809 53.2439 146.496 53.134 146.196 52.9852L146.037 53.6902C146.343 53.839 146.694 53.9618 147.096 54.046C147.505 54.1365 147.881 54.1817 148.239 54.1817C149.196 54.1817 149.936 53.923 150.453 53.4056C150.977 52.8817 151.238 52.1442 151.238 51.187V43.6256H150.568ZM150.409 49.2272C150.211 49.6411 149.936 49.971 149.579 50.2103C149.228 50.4496 148.788 50.566 148.271 50.566C147.543 50.566 147.001 50.3008 146.643 49.7639C146.279 49.2272 146.101 48.5027 146.101 47.5907V47.4484C146.101 46.4911 146.286 45.7148 146.65 45.1133C147.013 44.5117 147.556 44.2078 148.283 44.2078C148.819 44.2078 149.26 44.3436 149.611 44.6088C149.955 44.874 150.217 45.2168 150.409 45.6437V49.2272Z" fill="#F9FCFF"/>
<path d="M158.82 50.3979C158.794 50.1521 158.775 49.8934 158.775 49.6282V45.9347C158.775 45.1457 158.533 44.5376 158.035 44.1172C157.544 43.6968 156.893 43.4897 156.076 43.4897C155.259 43.4897 154.601 43.7032 154.097 44.1301C153.593 44.5571 153.357 45.0551 153.382 45.6179L153.395 45.6631H154.155C154.155 45.2426 154.327 44.8934 154.672 44.6152C155.023 44.3372 155.476 44.1949 156.037 44.1949C156.65 44.1949 157.122 44.3501 157.454 44.654C157.792 44.9581 157.965 45.3785 157.965 45.9218V46.8533H156.139C155.208 46.8533 154.455 47.0602 153.874 47.4743C153.293 47.8946 153.006 48.438 153.006 49.1106C153.006 49.7834 153.204 50.3137 153.606 50.7019C154.008 51.0964 154.569 51.2905 155.297 51.2905C155.891 51.2905 156.427 51.1546 156.886 50.8894C157.346 50.6243 157.703 50.2879 157.965 49.8804C157.965 50.0809 157.978 50.2749 157.997 50.4625C158.022 50.6566 158.061 50.883 158.112 51.1417H158.967C158.903 50.8959 158.852 50.6502 158.82 50.3979ZM157.965 48.9295C157.799 49.4017 157.486 49.7963 157.02 50.1004C156.561 50.4043 156.018 50.5531 155.386 50.5531C154.901 50.5531 154.518 50.4237 154.244 50.165C153.963 49.9063 153.829 49.5635 153.829 49.1365C153.829 48.6838 154.046 48.2957 154.48 47.9723C154.914 47.6488 155.463 47.4872 156.133 47.4872H157.965V48.9295Z" fill="#F9FCFF"/>
<path d="M163.862 50.482C163.734 50.5143 163.626 50.5337 163.53 50.5402C163.441 50.5532 163.338 50.5596 163.243 50.5596C162.949 50.5596 162.713 50.4561 162.541 50.2491C162.362 50.0422 162.273 49.6993 162.273 49.2078V44.3048H163.906V43.6257H162.273V41.7046H161.443V43.6257H160.16V44.3048H161.443V49.2078C161.443 49.9257 161.59 50.4561 161.877 50.7925C162.171 51.1223 162.579 51.2905 163.096 51.2905C163.256 51.2905 163.415 51.2711 163.581 51.2387C163.741 51.2064 163.881 51.1611 163.989 51.103L163.862 50.482Z" fill="#F9FCFF"/>
<path d="M165.643 40.3076V41.4719H166.459V40.3076H165.643ZM165.643 43.6258V51.1419H166.459V43.6258H165.643Z" fill="#F9FCFF"/>
<path d="M173.959 44.5505C173.359 43.8391 172.561 43.4897 171.572 43.4897C170.583 43.4897 169.791 43.8391 169.191 44.5505C168.598 45.2621 168.298 46.1677 168.298 47.2737V47.5065C168.298 48.6127 168.598 49.5247 169.191 50.2297C169.791 50.9347 170.589 51.2905 171.585 51.2905C172.58 51.2905 173.365 50.9347 173.959 50.2297C174.559 49.5247 174.859 48.6127 174.859 47.5065V47.2737C174.859 46.1677 174.559 45.2621 173.959 44.5505ZM174.042 47.5065C174.042 48.3733 173.825 49.1042 173.384 49.6993C172.95 50.2944 172.351 50.5855 171.585 50.5855C170.819 50.5855 170.206 50.2944 169.772 49.6993C169.338 49.1042 169.121 48.3733 169.121 47.5065V47.2737C169.121 46.4199 169.338 45.689 169.772 45.0939C170.206 44.4924 170.806 44.1949 171.572 44.1949C172.338 44.1949 172.944 44.4924 173.384 45.0939C173.818 45.689 174.042 46.4199 174.042 47.2737V47.5065Z" fill="#F9FCFF"/>
<path d="M181.636 44.2337C181.215 43.7356 180.602 43.4897 179.798 43.4897C179.249 43.4897 178.771 43.6127 178.368 43.865C177.966 44.1172 177.641 44.4729 177.398 44.9322L177.322 43.6256H176.601V51.1417H177.424V45.8248C177.583 45.3332 177.839 44.9387 178.196 44.6476C178.56 44.3565 179.032 44.2078 179.613 44.2078C180.194 44.2078 180.653 44.3889 180.966 44.7446C181.285 45.1004 181.445 45.7084 181.445 46.5751V51.1417H182.268V46.5622C182.268 45.5079 182.057 44.7316 181.636 44.2337Z" fill="#F9FCFF"/>
<path d="M193.29 50.3979C193.258 50.1521 193.245 49.8934 193.245 49.6282V45.9347C193.245 45.1457 192.996 44.5376 192.505 44.1172C192.013 43.6968 191.356 43.4897 190.545 43.4897C189.735 43.4897 189.071 43.7032 188.567 44.1301C188.063 44.5571 187.82 45.0551 187.852 45.6179L187.865 45.6631H188.624C188.624 45.2426 188.797 44.8934 189.141 44.6152C189.486 44.3372 189.939 44.1949 190.501 44.1949C191.113 44.1949 191.592 44.3501 191.924 44.654C192.262 44.9581 192.428 45.3785 192.428 45.9218V46.8533H190.609C189.677 46.8533 188.924 47.0602 188.344 47.4743C187.763 47.8946 187.476 48.438 187.476 49.1106C187.476 49.7834 187.673 50.3137 188.076 50.7019C188.471 51.0964 189.039 51.2905 189.76 51.2905C190.36 51.2905 190.89 51.1546 191.356 50.8894C191.815 50.6243 192.173 50.2879 192.428 49.8804C192.428 50.0809 192.441 50.2749 192.466 50.4625C192.492 50.6566 192.53 50.883 192.581 51.1417H193.437C193.366 50.8959 193.322 50.6502 193.29 50.3979ZM192.428 48.9295C192.262 49.4017 191.949 49.7963 191.49 50.1004C191.03 50.4043 190.482 50.5531 189.85 50.5531C189.365 50.5531 188.988 50.4237 188.714 50.165C188.433 49.9063 188.299 49.5635 188.299 49.1365C188.299 48.6838 188.516 48.2957 188.95 47.9723C189.384 47.6488 189.933 47.4872 190.596 47.4872H192.428V48.9295Z" fill="#F9FCFF"/>
<path d="M200.502 44.2337C200.081 43.7356 199.468 43.4897 198.664 43.4897C198.109 43.4897 197.63 43.6127 197.228 43.865C196.826 44.1172 196.507 44.4729 196.264 44.9322L196.188 43.6256H195.46V51.1417H196.283V45.8248C196.443 45.3332 196.704 44.9387 197.062 44.6476C197.419 44.3565 197.892 44.2078 198.479 44.2078C199.066 44.2078 199.513 44.3889 199.832 44.7446C200.151 45.1004 200.31 45.7084 200.31 46.5751V51.1417H201.134V46.5622C201.134 45.5079 200.923 44.7316 200.502 44.2337Z" fill="#F9FCFF"/>
<path d="M208.109 40.3076V44.7383C207.86 44.3373 207.541 44.0333 207.158 43.8134C206.782 43.5935 206.335 43.49 205.824 43.49C204.931 43.49 204.235 43.8457 203.731 44.5702C203.233 45.2881 202.984 46.2455 202.984 47.4486V47.5909C202.984 48.7163 203.233 49.6154 203.731 50.2881C204.235 50.9544 204.925 51.2907 205.812 51.2907C206.341 51.2907 206.795 51.1807 207.184 50.9737C207.573 50.7602 207.892 50.4498 208.148 50.0552L208.262 51.1419H208.933V40.3076H208.109ZM208.109 49.2208C207.911 49.6413 207.637 49.9712 207.286 50.2105C206.935 50.4498 206.495 50.5662 205.965 50.5662C205.244 50.5662 204.701 50.3011 204.344 49.7642C203.986 49.2273 203.808 48.5029 203.808 47.5909V47.4486C203.808 46.4912 203.986 45.7086 204.35 45.107C204.714 44.512 205.256 44.208 205.978 44.208C206.526 44.208 206.973 44.3438 207.318 44.6155C207.656 44.8806 207.924 45.23 208.109 45.6569V49.2208Z" fill="#F9FCFF"/>
<path d="M220.657 41.8405C220.082 41.2971 219.272 41.0254 218.225 41.0254H214.785V51.1418H215.608V46.9374H218.225C219.272 46.9374 220.082 46.6722 220.657 46.1353C221.231 45.5985 221.518 44.8805 221.518 43.9814C221.518 43.0824 221.231 42.3838 220.657 41.8405ZM220.076 45.5985C219.661 46.0189 219.048 46.2324 218.225 46.2324H215.608V41.7369H218.225C219.048 41.7369 219.661 41.9504 220.076 42.3772C220.484 42.8106 220.695 43.3475 220.695 43.9944C220.695 44.6411 220.484 45.1716 220.076 45.5985Z" fill="#F9FCFF"/>
<path d="M226.542 43.5092C226.452 43.4963 226.356 43.4897 226.254 43.4897C225.757 43.4897 225.323 43.6192 224.965 43.8779C224.601 44.1366 224.314 44.4988 224.104 44.9581V44.874L223.995 43.6256H223.28V51.1417H224.104V45.9542C224.244 45.4367 224.48 45.0357 224.812 44.7446C225.144 44.4471 225.565 44.2984 226.082 44.2984L226.663 44.3436L226.765 43.5609C226.707 43.548 226.631 43.5285 226.542 43.5092Z" fill="#F9FCFF"/>
<path d="M233.536 47.3772V46.7304C233.536 45.7407 233.287 44.9516 232.796 44.3695C232.305 43.7808 231.609 43.4897 230.709 43.4897C229.809 43.4897 229.062 43.8391 228.456 44.5441C227.85 45.2492 227.55 46.1418 227.55 47.2284V47.61C227.55 48.6903 227.85 49.5699 228.45 50.2556C229.05 50.9477 229.828 51.2905 230.786 51.2905C231.373 51.2905 231.883 51.2 232.305 51.0123C232.726 50.8313 233.07 50.6048 233.332 50.3267L232.981 49.7575C232.726 50.0098 232.413 50.2103 232.036 50.3591C231.654 50.5143 231.239 50.5855 230.786 50.5855C230.032 50.5855 229.439 50.3073 229.011 49.7381C228.584 49.1753 228.373 48.4639 228.373 47.61V47.3772H233.536ZM229.152 44.887C229.56 44.4277 230.077 44.1949 230.709 44.1949C231.341 44.1949 231.851 44.4148 232.196 44.8482C232.541 45.2814 232.713 45.8313 232.713 46.4975V46.6722H228.462L228.443 46.6268C228.507 45.9218 228.75 45.3397 229.152 44.887Z" fill="#F9FCFF"/>
<path d="M239.81 47.7718C239.369 47.4289 238.712 47.1573 237.844 46.9633C237.072 46.7886 236.555 46.5945 236.293 46.3681C236.038 46.1418 235.91 45.8571 235.91 45.5144C235.91 45.1715 236.057 44.8546 236.357 44.5894C236.663 44.3306 237.11 44.1949 237.704 44.1949C238.297 44.1949 238.744 44.3501 239.095 44.654C239.439 44.9581 239.618 45.3203 239.618 45.7343H240.378L240.39 45.689C240.416 45.0681 240.18 44.5441 239.682 44.1237C239.191 43.6968 238.533 43.4897 237.704 43.4897C236.919 43.4897 236.287 43.6839 235.808 44.0849C235.329 44.4859 235.093 44.971 235.093 45.5467C235.093 46.1224 235.304 46.5751 235.731 46.8986C236.159 47.2154 236.81 47.4743 237.691 47.6554C238.437 47.8235 238.948 48.037 239.235 48.3021C239.522 48.5608 239.663 48.8649 239.663 49.2206C239.663 49.5958 239.491 49.9193 239.152 50.1844C238.808 50.456 238.342 50.5855 237.742 50.5855C237.199 50.5855 236.721 50.469 236.312 50.2232C235.91 49.9774 235.693 49.5828 235.661 49.0395H234.908L234.895 49.0784C234.863 49.6799 235.106 50.2038 235.623 50.6372C236.14 51.0705 236.842 51.2905 237.742 51.2905C238.565 51.2905 239.229 51.0964 239.727 50.7019C240.231 50.3137 240.48 49.8027 240.48 49.1753C240.48 48.5867 240.256 48.121 239.81 47.7718Z" fill="#F9FCFF"/>
<path d="M247.966 47.3772V46.7304C247.966 45.7407 247.723 44.9516 247.232 44.3695C246.741 43.7808 246.045 43.4897 245.145 43.4897C244.245 43.4897 243.498 43.8391 242.892 44.5441C242.286 45.2492 241.979 46.1418 241.979 47.2284V47.61C241.979 48.6903 242.279 49.5699 242.879 50.2556C243.479 50.9477 244.258 51.2905 245.215 51.2905C245.809 51.2905 246.313 51.2 246.734 51.0123C247.162 50.8313 247.5 50.6048 247.762 50.3267L247.411 49.7575C247.162 50.0098 246.843 50.2103 246.466 50.3591C246.09 50.5143 245.668 50.5855 245.215 50.5855C244.462 50.5855 243.875 50.3073 243.447 49.7381C243.02 49.1753 242.803 48.4639 242.803 47.61V47.3772H247.966ZM243.588 44.887C243.996 44.4277 244.513 44.1949 245.145 44.1949C245.777 44.1949 246.281 44.4148 246.626 44.8482C246.97 45.2814 247.143 45.8313 247.143 46.4975V46.6722H242.892L242.873 46.6268C242.943 45.9218 243.179 45.3397 243.588 44.887Z" fill="#F9FCFF"/>
<path d="M254.693 44.2337C254.272 43.7356 253.659 43.4897 252.855 43.4897C252.306 43.4897 251.827 43.6127 251.425 43.865C251.023 44.1172 250.698 44.4729 250.455 44.9322L250.378 43.6256H249.657V51.1417H250.474V45.8248C250.64 45.3332 250.895 44.9387 251.253 44.6476C251.617 44.3565 252.089 44.2078 252.67 44.2078C253.25 44.2078 253.71 44.3889 254.023 44.7446C254.342 45.1004 254.501 45.7084 254.501 46.5751V51.1417H255.325V46.5622C255.325 45.5079 255.114 44.7316 254.693 44.2337Z" fill="#F9FCFF"/>
<path d="M260.374 50.482C260.246 50.5143 260.131 50.5337 260.042 50.5402C259.946 50.5532 259.85 50.5596 259.748 50.5596C259.454 50.5596 259.218 50.4561 259.046 50.2491C258.867 50.0422 258.778 49.6993 258.778 49.2078V44.3048H260.412V43.6257H258.778V41.7046H257.948V43.6257H256.672V44.3048H257.948V49.2078C257.948 49.9257 258.095 50.4561 258.389 50.7925C258.676 51.1223 259.084 51.2905 259.601 51.2905C259.761 51.2905 259.927 51.2711 260.086 51.2387C260.252 51.2064 260.386 51.1611 260.495 51.103L260.374 50.482Z" fill="#F9FCFF"/>
<path d="M267.451 50.3979C267.419 50.1521 267.407 49.8934 267.407 49.6282V45.9347C267.407 45.1457 267.158 44.5376 266.666 44.1172C266.175 43.6968 265.518 43.4897 264.707 43.4897C263.897 43.4897 263.233 43.7032 262.729 44.1301C262.224 44.5571 261.982 45.0551 262.014 45.6179L262.027 45.6631H262.786C262.786 45.2426 262.958 44.8934 263.303 44.6152C263.648 44.3372 264.101 44.1949 264.662 44.1949C265.275 44.1949 265.754 44.3501 266.086 44.654C266.424 44.9581 266.59 45.3785 266.59 45.9218V46.8533H264.765C263.839 46.8533 263.086 47.0602 262.505 47.4743C261.924 47.8946 261.631 48.438 261.631 49.1106C261.631 49.7834 261.835 50.3137 262.231 50.7019C262.633 51.0964 263.194 51.2905 263.922 51.2905C264.522 51.2905 265.052 51.1546 265.511 50.8894C265.977 50.6243 266.335 50.2879 266.59 49.8804C266.59 50.0809 266.603 50.2749 266.628 50.4625C266.654 50.6566 266.692 50.883 266.743 51.1417H267.598C267.528 50.8959 267.483 50.6502 267.451 50.3979ZM266.59 48.9295C266.424 49.4017 266.111 49.7963 265.652 50.1004C265.192 50.4043 264.643 50.5531 264.011 50.5531C263.526 50.5531 263.15 50.4237 262.869 50.165C262.595 49.9063 262.454 49.5635 262.454 49.1365C262.454 48.6838 262.671 48.2957 263.105 47.9723C263.539 47.6488 264.094 47.4872 264.758 47.4872H266.59V48.9295Z" fill="#F9FCFF"/>
<path d="M272.493 50.482C272.365 50.5143 272.257 50.5337 272.161 50.5402C272.065 50.5532 271.969 50.5596 271.867 50.5596C271.58 50.5596 271.344 50.4561 271.165 50.2491C270.993 50.0422 270.904 49.6993 270.904 49.2078V44.3048H272.537V43.6257H270.904V41.7046H270.074V43.6257H268.791V44.3048H270.074V49.2078C270.074 49.9257 270.221 50.4561 270.508 50.7925C270.801 51.1223 271.203 51.2905 271.727 51.2905C271.886 51.2905 272.046 51.2711 272.205 51.2387C272.371 51.2064 272.505 51.1611 272.614 51.103L272.493 50.482Z" fill="#F9FCFF"/>
<path d="M274.268 40.3076V41.4719H275.084V40.3076H274.268ZM274.268 43.6258V51.1419H275.084V43.6258H274.268Z" fill="#F9FCFF"/>
<path d="M282.589 44.5505C281.989 43.8391 281.192 43.4897 280.202 43.4897C279.213 43.4897 278.422 43.8391 277.822 44.5505C277.222 45.2621 276.922 46.1677 276.922 47.2737V47.5065C276.922 48.6127 277.222 49.5247 277.822 50.2297C278.422 50.9347 279.219 51.2905 280.215 51.2905C281.211 51.2905 281.996 50.9347 282.589 50.2297C283.189 49.5247 283.483 48.6127 283.483 47.5065V47.2737C283.483 46.1677 283.183 45.2621 282.589 44.5505ZM282.666 47.5065C282.666 48.3733 282.449 49.1042 282.015 49.6993C281.574 50.2944 280.975 50.5855 280.215 50.5855C279.456 50.5855 278.83 50.2944 278.396 49.6993C277.962 49.1042 277.745 48.3733 277.745 47.5065V47.2737C277.745 46.4199 277.962 45.689 278.396 45.0939C278.83 44.4924 279.43 44.1949 280.202 44.1949C280.975 44.1949 281.574 44.4924 282.008 45.0939C282.449 45.689 282.666 46.4199 282.666 47.2737V47.5065Z" fill="#F9FCFF"/>
<path d="M290.267 44.2337C289.846 43.7356 289.234 43.4897 288.429 43.4897C287.874 43.4897 287.396 43.6127 286.993 43.865C286.591 44.1172 286.272 44.4729 286.03 44.9322L285.953 43.6256H285.226V51.1417H286.049V45.8248C286.208 45.3332 286.47 44.9387 286.828 44.6476C287.185 44.3565 287.657 44.2078 288.244 44.2078C288.832 44.2078 289.278 44.3889 289.597 44.7446C289.916 45.1004 290.076 45.7084 290.076 46.5751V51.1417H290.899V46.5622C290.899 45.5079 290.689 44.7316 290.267 44.2337Z" fill="#F9FCFF"/>
<path d="M248.471 9.45398L253.13 12.1642C255.185 8.84597 258.772 6.60796 262.882 6.45272V1C256.78 1.16817 251.458 4.51225 248.471 9.45398Z" fill="#FFFAFA"/>
<path d="M263.826 1V6.44625C270.266 6.69851 275.416 12.0542 275.435 18.6453C275.448 23.7747 272.346 28.173 267.93 30.0036L269.774 35.12C276.252 32.5262 280.822 26.1161 280.803 18.6259C280.777 9.04002 273.227 1.25226 263.833 1H263.826Z" fill="#FFFAFA"/>
<path d="M263.386 30.9159C256.716 30.9353 251.291 25.4696 251.279 18.7103C251.279 16.647 251.77 14.7064 252.657 12.9989L247.992 10.2822C246.658 12.7919 245.899 15.6703 245.911 18.7233C245.937 28.4838 253.768 36.3815 263.405 36.3557C265.319 36.3557 267.164 36.0323 268.887 35.4501L267.043 30.3338C265.894 30.7089 264.662 30.9094 263.386 30.9159Z" fill="#FFFAFA"/>
</g>
</svg>
