<svg width="33" height="33" viewBox="0 0 33 33" fill="none" xmlns="http://www.w3.org/2000/svg">
<mask id="mask0_0_75" style="mask-type:alpha" maskUnits="userSpaceOnUse" x="0" y="0" width="33" height="33">
<rect width="33" height="33" fill="#9C9689"/>
</mask>
<g mask="url(#mask0_0_75)">
<path d="M16.4996 20.5561C16.3163 20.5561 16.1444 20.5274 15.984 20.4701C15.8236 20.4128 15.6746 20.3154 15.5371 20.1779L9.21211 13.8529C8.96003 13.6008 8.83398 13.28 8.83398 12.8904C8.83398 12.5008 8.96003 12.18 9.21211 11.9279C9.46419 11.6758 9.78503 11.5498 10.1746 11.5498C10.5642 11.5498 10.885 11.6758 11.1371 11.9279L16.4996 17.2904L21.8621 11.9279C22.1142 11.6758 22.435 11.5498 22.8246 11.5498C23.2142 11.5498 23.535 11.6758 23.7871 11.9279C24.0392 12.18 24.1652 12.5008 24.1652 12.8904C24.1652 13.28 24.0392 13.6008 23.7871 13.8529L17.4621 20.1779C17.3246 20.3154 17.1757 20.4128 17.0152 20.4701C16.8548 20.5274 16.6829 20.5561 16.4996 20.5561Z" fill="#9C9689"/>
</g>
</svg>
