<svg width="31" height="31" viewBox="0 0 31 31" fill="none" xmlns="http://www.w3.org/2000/svg">
<g clip-path="url(#clip0_2321_2107)">
<g filter="url(#filter0_f_2321_2107)">
<path d="M9.6482 24.4483L10.0436 24.6821C11.7044 25.6659 13.6087 26.1863 15.5506 26.1872H15.5546C21.5182 26.1872 26.3716 21.3441 26.3741 15.3916C26.3752 12.5071 25.2508 9.79453 23.208 7.75408C22.2061 6.74778 21.0142 5.94983 19.7012 5.40642C18.3882 4.863 16.9803 4.58491 15.5589 4.58824C9.5907 4.58824 4.73713 9.43076 4.73501 15.3829C4.73207 17.4154 5.30552 19.4073 6.38907 21.1282L6.6465 21.5364L5.55328 25.5198L9.6482 24.4483ZM2.42773 28.6059L4.27465 21.8755C3.13561 19.9058 2.53637 17.6713 2.53707 15.3821C2.54008 8.22044 8.3793 2.39417 15.5548 2.39417C19.0369 2.39593 22.3052 3.7484 24.7632 6.20348C27.2212 8.65855 28.5736 11.9219 28.5724 15.3925C28.5692 22.5536 22.7291 28.3809 15.5546 28.3809H15.549C13.3705 28.38 11.2299 27.8345 9.3285 26.7997L2.42773 28.6059Z" fill="#B3B3B3"/>
</g>
<path d="M2.29395 28.4723L4.14086 21.7419C2.99986 19.7675 2.40053 17.5278 2.40328 15.2485C2.40629 8.08689 8.24551 2.26062 15.421 2.26062C18.9031 2.26239 22.1714 3.61486 24.6294 6.06993C27.0874 8.525 28.4398 11.7883 28.4386 15.2589C28.4354 22.42 22.5953 28.2473 15.4209 28.2473H15.4152C13.2367 28.2465 11.0961 27.701 9.19471 26.6662L2.29395 28.4723Z" fill="white"/>
<path d="M15.4255 4.45474C9.45727 4.45474 4.6037 9.29726 4.60157 15.2494C4.59863 17.2819 5.17209 19.2738 6.25564 20.9947L6.51307 21.4031L5.41985 25.3865L9.51494 24.3148L9.91037 24.5486C11.5712 25.5324 13.4754 26.0526 15.4173 26.0537H15.4214C21.385 26.0537 26.2386 21.2106 26.2409 15.2581C26.2454 13.8393 25.9678 12.4338 25.4244 11.1228C24.8809 9.81178 24.0823 8.62141 23.0748 7.62057C22.0729 6.61426 20.8809 5.8163 19.5679 5.27288C18.2548 4.72946 16.8469 4.45138 15.4255 4.45474Z" fill="url(#paint0_linear_2321_2107)"/>
<path fill-rule="evenodd" clip-rule="evenodd" d="M12.1679 9.81867C11.9241 9.27814 11.6675 9.2672 11.4359 9.25784L10.8124 9.25024C10.5955 9.25024 10.2431 9.33147 9.94515 9.65639C9.64721 9.98131 8.80664 10.7666 8.80664 12.3638C8.80664 13.961 9.97222 15.5044 10.1346 15.7212C10.2971 15.9381 12.3848 19.3202 15.6909 20.6215C18.4384 21.7029 18.9975 21.4878 19.5941 21.4338C20.1907 21.3797 21.5185 20.6485 21.7894 19.8904C22.0602 19.1323 22.0604 18.4829 21.9792 18.3471C21.898 18.2113 21.6811 18.1306 21.3555 17.9681C21.03 17.8057 19.4311 17.0204 19.133 16.912C18.8349 16.8035 18.6182 16.7497 18.4011 17.0746C18.184 17.3995 17.5614 18.1304 17.3716 18.3471C17.1817 18.5637 16.9922 18.5909 16.6667 18.4286C16.3411 18.2664 15.2938 17.9234 14.051 16.8175C13.0841 15.957 12.4315 14.8943 12.2415 14.5695C12.0514 14.2448 12.2213 14.0689 12.3844 13.9072C12.5304 13.7617 12.7096 13.528 12.8725 13.3386C13.0355 13.1491 13.0891 13.0136 13.1974 12.7973C13.3057 12.581 13.2517 12.391 13.1703 12.2287C13.0889 12.0664 12.4569 10.4607 12.1679 9.81867Z" fill="white"/>
</g>
<defs>
<filter id="filter0_f_2321_2107" x="-4.63427" y="-4.66783" width="40.2685" height="40.3357" filterUnits="userSpaceOnUse" color-interpolation-filters="sRGB">
<feFlood flood-opacity="0" result="BackgroundImageFix"/>
<feBlend mode="normal" in="SourceGraphic" in2="BackgroundImageFix" result="shape"/>
<feGaussianBlur stdDeviation="3.531" result="effect1_foregroundBlur_2321_2107"/>
</filter>
<linearGradient id="paint0_linear_2321_2107" x1="15.2009" y1="5.75088" x2="15.3102" y2="24.2085" gradientUnits="userSpaceOnUse">
<stop stop-color="#57D163"/>
<stop offset="1" stop-color="#23B33A"/>
</linearGradient>
<clipPath id="clip0_2321_2107">
<rect width="31" height="31" fill="white"/>
</clipPath>
</defs>
</svg>
